<svg width="480" height="142" viewBox="0 0 480 142" fill="white"
     xmlns="http://www.w3.org/2000/svg">
  <path
    d="M-0.000183105 142L-0.000171928 0.0247032C16.4108 0.492875 27.6875 7.51531 32.4667 12.7747C32.7598 12.6419 33.0283 12.4316 33.2415 12.1468C34.9381 9.88014 36.9642 7.85327 39.3062 6.16338C50.7651 -2.10459 65.7625 0.49317 74.4985 11.6341C74.9992 12.2726 75.7922 12.5322 76.5248 12.2972C85.322 9.47511 94.9003 11.8164 101.831 18.51C102.602 19.2545 103.774 19.2317 104.502 18.4358C106.416 16.3432 108.546 14.4307 110.886 12.7425C124.692 2.781 141.919 3.34063 154.956 12.6038C155.786 13.1929 156.89 12.9874 157.519 12.1468C159.216 9.88016 161.242 7.85329 163.584 6.16339C175.043 -2.10458 190.04 0.493182 198.776 11.6341C199.277 12.2726 200.07 12.5322 200.802 12.2972C209.6 9.47512 219.178 11.8164 226.109 18.5101C226.88 19.2545 228.052 19.2317 228.78 18.4358C230.694 16.3432 232.824 14.4307 235.164 12.7425C245.518 5.27135 257.797 3.71829 268.79 7.31672C269.248 7.46661 269.703 7.62557 270.156 7.79328C273.33 8.96763 276.382 10.5775 279.234 12.6038C280.063 13.1929 281.168 12.9874 281.797 12.1468C283.493 9.88017 285.52 7.8533 287.862 6.1634C299.321 -2.10457 314.318 0.493194 323.054 11.6341C323.555 12.2726 324.348 12.5322 325.08 12.2972C333.877 9.47513 343.456 11.8164 350.387 18.5101C351.157 19.2546 352.329 19.2317 353.057 18.4359C354.972 16.3432 357.102 14.4307 359.441 12.7425C369.796 5.27137 382.075 3.7183 393.067 7.31673C393.525 7.46662 393.981 7.62559 394.434 7.7933C397.607 8.96764 400.66 10.5775 403.512 12.6038C404.341 13.193 405.445 12.9874 406.075 12.1468C407.771 9.88018 409.797 7.85331 412.139 6.16342C421.475 -0.572226 437.946 0.949764 446.679 7.38119C459.324 1.66888 470.519 -0.245728 480 0.0247498L480 142L-0.000183105 142Z"
  />
</svg>
