<svg xmlns="http://www.w3.org/2000/svg">
  <symbol id="ArrowDown" viewBox="0 0 24 24" fill="none" stroke="currentColor">
    <path stroke-width="1.5" stroke-linecap="round" stroke-linejoin="round"
          d="M6 9L12 15L18 9"/>
  </symbol>
  <symbol id="ArrowLeft" viewBox="0 0 24 24" fill="none" stroke="currentColor">
    <path stroke-width="1.5" stroke-linecap="round" stroke-linejoin="round"
          d="M15 6L9 12L15 18"/>
  </symbol>
  <symbol id="ArrowRight" viewBox="0 0 24 24" fill="none" stroke="currentColor">
    <path stroke-width="1.5" stroke-linecap="round" stroke-linejoin="round"
          d="M9 18L15 12L9 6"/>
  </symbol>
  <symbol id="Cross" viewBox="0 0 24 24" fill="none" stroke="currentColor">
    <path stroke-width="1.5" stroke-linecap="round" stroke-linejoin="round"
          d="M20 4L12 12M12 12L4 20M12 12L20 20M12 12L4 4"/>
  </symbol>
  <symbol id="Settings" viewBox="0 0 24 24" fill="currentColor" stroke="none">
    <path fill-rule="evenodd"
          d="M10.466 8.29a4.013 4.013 0 1 1 3.062 7.419 4.013 4.013 0 0 1-3.062-7.42Zm2.521 1.326a2.581 2.581 0 1 0-1.979 4.768 2.581 2.581 0 0 0 1.98-4.768Z"
          clip-rule="evenodd"/>
    <path fill-rule="evenodd" clip-rule="evenodd"
          d="M9.593 1.003c.358 0 .77.137 1.059.425l.118.136.006.007c.215.294.611.94.978 1.564.166-.004.333-.005.499 0 .367-.623.768-1.27.983-1.563l.003-.005c.283-.378.768-.566 1.185-.562v-.001h.032v.002c.102.001.201.014.299.042l.008.001c.342.1 1.153.422 1.537.58.293.121.816.347 1.191.525l.312.156.006.005c.07.039.132.087.19.138.018.014.037.028.053.043.27.255.472.66.472 1.077l-.014.186c-.055.36-.232 1.1-.414 1.8.12.115.238.235.353.356.7-.181 1.44-.356 1.802-.41l.006-.001.18-.012c.406.002.795.193 1.05.447l.008.008.015.014h-.002c.03.032.061.064.088.099l.093.136.01.018c.169.31.515 1.104.677 1.494l.312.79c.112.293.216.58.266.75l.006.02c.02.077.033.168.036.268 0 .01.004.019.004.028v.03h-.002c0 .41-.182.891-.562 1.177l-.006.005c-.294.215-.942.612-1.565.978.004.167.005.334 0 .501.446.263.905.543 1.236.76l.327.223.005.004c.378.283.565.767.561 1.184h.002v.032l-.002-.001a1.168 1.168 0 0 1-.042.3l-.002.008c-.1.341-.42 1.151-.58 1.538-.121.292-.347.814-.525 1.188l-.156.312c-.054.098-.12.18-.187.25h.001l-.008.008-.01.01v-.001c-.293.3-.769.51-1.238.442h-.008c-.36-.056-1.1-.233-1.8-.415a8.87 8.87 0 0 1-.354.354c.181.7.357 1.44.411 1.802l.001.006c.067.476-.15.95-.449 1.24l.002.002-.01.007v.003l-.001-.001c-.069.066-.15.132-.247.185l-.006.004c-.312.17-1.113.517-1.498.677-.39.162-1.2.478-1.54.578l-.006.002a1.157 1.157 0 0 1-.29.041c-.005 0-.011.003-.017.003h-.024v-.002a1.536 1.536 0 0 1-1.065-.425l-.123-.143c-.216-.294-.615-.942-.981-1.566a8.807 8.807 0 0 1-.499 0c-.367.623-.767 1.271-.982 1.564l-.003.004c-.283.378-.769.567-1.185.563H9.54v-.002a1.169 1.169 0 0 1-.298-.04l-.01-.003c-.338-.1-1.15-.422-1.537-.58-.393-.162-1.186-.509-1.497-.677l-.02-.01a1.208 1.208 0 0 1-.233-.179l-.01-.008-.008-.008v-.002c-.299-.293-.509-.768-.442-1.237l.002-.008c.055-.36.23-1.1.412-1.8a8.731 8.731 0 0 1-.353-.354c-.7.18-1.44.356-1.8.41l-.007.001c-.475.067-.95-.15-1.24-.449l-.002.002a1.238 1.238 0 0 1-.189-.248l-.01-.018c-.17-.312-.516-1.11-.676-1.497-.16-.387-.48-1.2-.578-1.544v-.002a1.142 1.142 0 0 1-.041-.288c0-.007-.003-.014-.003-.02v-.035l.002-.001c.002-.41.184-.887.562-1.17l.007-.006c.294-.215.94-.614 1.563-.98a8.867 8.867 0 0 1 0-.498c-.623-.368-1.269-.769-1.562-.984l-.005-.002c-.388-.29-.578-.794-.564-1.217a1.17 1.17 0 0 1 .044-.3l.002-.01.112-.328c.139-.389.348-.918.467-1.207.16-.391.51-1.187.681-1.5l.004-.01a1.18 1.18 0 0 1 .183-.24l-.001-.001c.255-.27.66-.47 1.077-.47l.18.01.008.003c.36.055 1.099.23 1.799.413a8.89 8.89 0 0 1 .354-.354c-.18-.7-.356-1.44-.41-1.802l-.001-.006c-.066-.473.147-.947.444-1.237l.004-.005.01-.01v.001a1.2 1.2 0 0 1 .234-.18l.018-.01c.312-.17 1.11-.516 1.498-.676.29-.12.82-.33 1.211-.468l.33-.11h.003c.091-.025.187-.037.283-.04.009 0 .018-.004.027-.004h.029v.003Zm.014 1.432c-.283.089-.97.355-1.35.512a24.33 24.33 0 0 0-1.319.59.151.151 0 0 0-.011.024l-.001.002c.055.34.245 1.14.446 1.898.004.016.005.033.009.05.07.333-.04.68-.296.908l-.004.002c-.23.203-.447.42-.65.65a.951.951 0 0 1-.96.29c-.757-.203-1.555-.393-1.897-.45H3.57l-.025.012c-.14.267-.437.943-.59 1.318h-.002c-.156.38-.425 1.067-.517 1.355a.158.158 0 0 0 .01.027c.278.2.97.628 1.642 1.02l.016.008c.311.18.494.52.474.877v.006c-.02.306-.019.613 0 .92l-.001.004a.952.952 0 0 1-.476.878h.001c-.678.394-1.378.825-1.658 1.025l-.001.001a.152.152 0 0 0-.01.027c.09.285.356.972.513 1.35.155.378.452 1.053.591 1.322.007.005.015.01.023.012h.003c.339-.055 1.137-.242 1.894-.443a.957.957 0 0 1 .957.28l.007.01c.201.23.418.446.648.649l.094.097a.949.949 0 0 1 .193.863c-.202.756-.391 1.555-.448 1.897l.002.004a.145.145 0 0 0 .011.023c.13.066.347.168.58.272l.739.318c.38.156 1.068.426 1.356.518a.148.148 0 0 0 .025-.01h.002c.202-.282.635-.982 1.028-1.659a.951.951 0 0 1 .743-.47l.134-.003h.005c.153.01.306.015.46.015l.46-.013h.003c.36-.02.7.163.88.475l.306.523c.292.488.567.925.716 1.134l.004.002a.16.16 0 0 0 .023.009 25.008 25.008 0 0 0 2.674-1.105c.004-.007.01-.015.012-.023v-.002c-.055-.34-.243-1.139-.444-1.896l-.001-.004a.956.956 0 0 1 .286-.953l.005-.006c.23-.202.447-.419.649-.647l.004-.005a.952.952 0 0 1 .966-.28c.753.2 1.546.389 1.887.445h.004a.146.146 0 0 0 .022-.012c.14-.266.439-.942.595-1.32v-.001c.158-.379.426-1.068.516-1.353-.002-.008-.004-.017-.008-.026l-.001-.002c-.281-.202-.976-.63-1.65-1.022l-.114-.077a.95.95 0 0 1-.367-.81l.015-.46c0-.154-.005-.307-.014-.46v-.004a.954.954 0 0 1 .474-.879l.523-.307c.489-.292.927-.568 1.135-.717l.001-.001a.171.171 0 0 0 .01-.026 23.479 23.479 0 0 0-.513-1.353v-.001a24.055 24.055 0 0 0-.591-1.314.15.15 0 0 0-.026-.014h-.003c-.34.055-1.14.243-1.897.445-.015.004-.03.003-.045.006a.952.952 0 0 1-.912-.295l-.003-.002a7.588 7.588 0 0 0-.65-.653.951.951 0 0 1-.287-.957l.153-.586c.14-.553.254-1.059.296-1.312v-.003a.149.149 0 0 0-.013-.024c-.267-.14-.942-.438-1.317-.592l-.002-.001a24.658 24.658 0 0 0-1.355-.517.155.155 0 0 0-.025.01h-.003c-.2.28-.628.972-1.019 1.644l-.006.013a.954.954 0 0 1-.878.475h-.006a7.438 7.438 0 0 0-.92-.001h-.002a.955.955 0 0 1-.881-.477l-.001-.001c-.392-.677-.821-1.374-1.022-1.655l-.003-.001a.156.156 0 0 0-.027-.01ZM3.52 6.945l.002.001.002-.005-.004.004Z"/>
  </symbol>
  <symbol id="History" viewBox="0 0 24 24" fill="currentColor" stroke="none">
    <path fill-rule="evenodd" clip-rule="evenodd"
          d="M12.49 1.49a10.53 10.53 0 0 0-9.514 6.028l-.395-1.295a.809.809 0 1 0-1.546.466l.99 3.258a.809.809 0 0 0 .986.543l3.193-.871a.808.808 0 0 0 .567-.997.809.809 0 0 0-.992-.567l-1.45.398a8.89 8.89 0 0 1 8.16-5.346A8.878 8.878 0 0 1 21.384 12a8.88 8.88 0 0 1-8.893 8.895 8.892 8.892 0 0 1-8.603-6.608.809.809 0 0 0-1.563.412 10.526 10.526 0 0 0 10.166 7.813C18.287 22.512 23 17.796 23 12S18.287 1.49 12.49 1.49Zm-.532 5.073a.808.808 0 0 0-.806.805v5.957a.81.81 0 0 0 .406.705l3.79 2.155a.808.808 0 0 0 1.181-.92.81.81 0 0 0-.382-.488l-3.378-1.922V7.368a.809.809 0 0 0-.811-.805Z"/>
  </symbol>
  <symbol id="Humidity" viewBox="0 0 24 24" fill="currentColor" stroke="none">
    <path
      d="M10.675 1a.742.742 0 0 1 .628.344l4.995 7.488a.759.759 0 1 1-1.263.842l-3.522-5.281-.83-1.251-.836 1.25-4.941 7.41a6.764 6.764 0 0 0-.559 4.572 6.65 6.65 0 0 0 2.491 3.842 6.43 6.43 0 0 0 3.077 1.236c.421.051.766.39.766.815 0 .424-.344.77-.766.73a7.901 7.901 0 0 1-3.173-1.02 8.09 8.09 0 0 1-2.92-2.895 8.316 8.316 0 0 1-.188-8.11l6.413-9.628A.76.76 0 0 1 10.675 1Z"/>
    <path fill-rule="evenodd" clip-rule="evenodd"
          d="M19.265 17.461c.451 0 .83.097 1.135.29.305.192.536.449.692.77.16.323.24.676.24 1.061v.538c0 .385-.08.739-.24 1.061-.16.319-.393.576-.702.771-.306.193-.68.29-1.125.29-.448 0-.827-.097-1.136-.29a1.914 1.914 0 0 1-.701-.771 2.359 2.359 0 0 1-.24-1.06v-.539c0-.384.08-.736.24-1.054a1.91 1.91 0 0 1 .707-.773c.312-.195.689-.294 1.13-.294Zm0 .996c-.332 0-.568.117-.707.349a1.48 1.48 0 0 0-.21.776v.538c0 .286.069.545.205.778.136.232.373.347.712.347.335 0 .57-.115.702-.347.133-.233.2-.492.2-.778v-.538c0-.285-.066-.544-.195-.776-.126-.232-.362-.349-.707-.349Z"/>
    <path
      d="M19.802 11.835a.49.49 0 0 1 .403.768L13.87 21.82a.491.491 0 0 1-.808-.555l6.337-9.218a.49.49 0 0 1 .404-.212ZM7.066 12.431a.743.743 0 0 1 .573.076.77.77 0 0 1 .353.468.786.786 0 0 1-.074.586 3.12 3.12 0 0 0-.287 2.34c.106.39.285.756.53 1.075.243.319.547.586.892.785l.016-.013a.786.786 0 0 1 .278 1.053.744.744 0 0 1-1.032.284 4.55 4.55 0 0 1-1.338-1.175 4.651 4.651 0 0 1-.795-1.61 4.705 4.705 0 0 1 .426-3.509.76.76 0 0 1 .458-.36Z"/>
    <path fill-rule="evenodd" clip-rule="evenodd"
          d="M14.136 11.626c.451 0 .83.096 1.136.288.305.193.536.45.692.773.156.322.234.676.234 1.06v.537c0 .385-.08.74-.24 1.061a1.88 1.88 0 0 1-.696.772c-.305.193-.681.289-1.126.289-.451 0-.831-.096-1.14-.288a1.928 1.928 0 0 1-.697-.773 2.36 2.36 0 0 1-.24-1.06v-.538c0-.385.08-.738.24-1.06a1.91 1.91 0 0 1 .707-.773c.312-.192.689-.288 1.13-.288Zm0 .995c-.332 0-.568.117-.707.349a1.51 1.51 0 0 0-.204.777v.537c0 .286.066.545.2.778.135.232.373.348.711.348.332 0 .565-.116.697-.348a1.51 1.51 0 0 0 .204-.777v-.538a1.57 1.57 0 0 0-.194-.777c-.13-.232-.365-.349-.707-.349Z"/>
  </symbol>
  <symbol id="Location" viewBox="0 0 24 24" fill="currentColor" stroke="none">
    <path fill-rule="evenodd" clip-rule="evenodd"
          d="M11.534 23.79C9.054 21 3 14.32 3 8.94 3 4.003 7.03 0 12 0s9 4.003 9 8.94c0 5.38-6.056 12.065-8.538 14.854a.62.62 0 0 1-.928-.005Zm.467-19.197c-2.417 0-4.376 1.946-4.376 4.347 0 3.86 4.72 5.807 7.47 3.075 2.75-2.733.791-7.422-3.094-7.422Zm2.219 2.144c-1.97-1.958-5.356-.565-5.356 2.204 0 2.768 3.385 4.16 5.356 2.203a3.102 3.102 0 0 0 0-4.407ZM4.24 8.94c0 4.695 5.364 10.826 7.761 13.521 2.397-2.694 7.76-8.826 7.76-13.521 0-4.259-3.473-7.71-7.76-7.71-4.286 0-7.76 3.451-7.76 7.71Z"/>
  </symbol>
  <symbol id="Precipitation" viewBox="0 0 24 24" fill="currentColor"
          stroke="none">
    <path
      d="M1.218 10.017c-.048.17-.088.344-.128.516-.062.342-.094.69-.09 1.042 0 .48.037 1.095.247 1.543.204.451.535.699.947.502.45-.214.472-.534.414-.88-.062-.344-.204-.763-.206-1.103a3.86 3.86 0 0 1 .281-1.51c.2-.471.502-.898.876-1.251a4.132 4.132 0 0 1 2.836-1.102.554.554 0 0 0 .534-.411A5.234 5.234 0 0 1 8.766 4.55 5.12 5.12 0 0 1 11.94 3.46a5.05 5.05 0 0 1 3.15 1.117 5.03 5.03 0 0 1 1.753 2.814c.06.275.302.484.593.49h.04c.92.026 1.803.38 2.448.972a3.157 3.157 0 0 1 1.057 2.209c.025.441-.055.938-.055 1.368.01.429.093.855.65 1.144.45.232.886-.057 1.153-.638.274-.575.314-1.388.235-2.007a4.981 4.981 0 0 0-.596-1.901 5.173 5.173 0 0 0-1.274-1.518 5.564 5.564 0 0 0-2.916-1.207 6.739 6.739 0 0 0-2.151-2.874 6.65 6.65 0 0 0-4.034-1.39 6.574 6.574 0 0 0-4.088 1.375 6.639 6.639 0 0 0-2.173 2.972A5.534 5.534 0 0 0 2.608 7.81a5.118 5.118 0 0 0-1.21 1.72c-.074.161-.12.333-.181.5v-.012Z"/>
    <path
      d="M12.102 6.005c.504.051.898.477.898.995v7.586l1.293-1.293a1 1 0 0 1 1.482 1.338l-.068.076-3 3a1 1 0 0 1-1.414 0l-3-3a1 1 0 0 1 1.414-1.414L11 14.586V7a1 1 0 0 1 1-1l.102.005ZM16.298 20.852a1.11 1.11 0 1 1-2.222 0 1.11 1.11 0 0 1 2.222 0ZM9.828 20.852a1.11 1.11 0 1 1-2.222 0 1.11 1.11 0 0 1 2.222 0ZM4.413 17.992a1.11 1.11 0 1 1-2.222 0 1.11 1.11 0 0 1 2.222 0ZM21.657 17.992a1.11 1.11 0 1 1-2.221 0 1.11 1.11 0 0 1 2.221 0Z"/>
  </symbol>
  <symbol id="Pressure" viewBox="0 0 24 24" fill="currentColor" stroke="none">
    <path fill-rule="evenodd"
          d="M14.585 9.874a.782.782 0 1 1 1.107 1.108l-1.579 1.58c.15.314.237.652.237 1.013a2.365 2.365 0 0 1-2.358 2.358 2.365 2.365 0 0 1-2.357-2.358 2.365 2.365 0 0 1 2.357-2.357c.37 0 .707.086 1.014.235l1.579-1.579ZM12 12.789a.789.789 0 0 0-.786.786c0 .432.354.785.786.785a.788.788 0 0 0 .786-.785.789.789 0 0 0-.786-.786Z"
          clip-rule="evenodd"/>
    <path fill-rule="evenodd" clip-rule="evenodd"
          d="M12 2.575c3.017 0 5.76 1.226 7.747 3.206.016.008.023 0 .031.016.008.015.016.023.016.031A10.954 10.954 0 0 1 23 13.575h-.016c0 2.86-1.092 5.563-3.072 7.614a.79.79 0 0 1-.557.236H4.63a.786.786 0 0 1-.558-.236A10.905 10.905 0 0 1 1 13.575c0-3.017 1.226-5.759 3.206-7.747.008-.016 0-.023.016-.031.015-.008.023-.016.03-.016A10.954 10.954 0 0 1 12 2.575Zm.77 3.15a.788.788 0 0 1-.786.787.789.789 0 0 1-.786-.786V4.193a9.344 9.344 0 0 0-5.296 2.193L6.987 7.47A.783.783 0 1 1 5.88 8.578L4.795 7.494a9.396 9.396 0 0 0-2.192 5.295h1.532c.432 0 .786.354.786.786a.788.788 0 0 1-.786.785H2.603a9.334 9.334 0 0 0 2.373 5.5h14.016a9.285 9.285 0 0 0 2.373-5.5h-1.532a.787.787 0 0 1-.785-.785c0-.432.353-.786.785-.786h1.532a9.342 9.342 0 0 0-2.192-5.295l-1.084 1.084A.782.782 0 1 1 16.98 7.47l1.084-1.084a9.398 9.398 0 0 0-5.296-2.193v1.533Z"/>
  </symbol>
  <symbol id="Raindrop" viewBox="0 0 24 24" fill="currentColor" stroke="none">
    <path
      d="M8.39 12.414a.741.741 0 0 1 .573.075c.173.102.3.27.352.467a.784.784 0 0 1-.074.585 3.114 3.114 0 0 0-.287 2.337c.106.39.285.754.529 1.073.244.319.546.585.891.784l.015-.013c.174.102.3.27.353.467a.785.785 0 0 1-.075.585.757.757 0 0 1-.457.36.741.741 0 0 1-.573-.076 4.539 4.539 0 0 1-1.336-1.174 4.644 4.644 0 0 1-.794-1.608 4.698 4.698 0 0 1 .425-3.503.757.757 0 0 1 .458-.36Z"/>
    <path fill-rule="evenodd" clip-rule="evenodd"
          d="M11.994 1a.74.74 0 0 1 .626.343l6.413 9.614a.79.79 0 0 1 .045.074 8.304 8.304 0 0 1-.23 8.023 8.077 8.077 0 0 1-2.916 2.892A7.875 7.875 0 0 1 12 23a7.874 7.874 0 0 1-3.932-1.055 8.078 8.078 0 0 1-2.917-2.89 8.303 8.303 0 0 1-.23-8.023.818.818 0 0 1 .043-.075l6.403-9.614A.74.74 0 0 1 11.994 1ZM6.233 11.786a6.753 6.753 0 0 0-.558 4.564 6.64 6.64 0 0 0 2.487 3.837 6.402 6.402 0 0 0 4.334 1.26 6.44 6.44 0 0 0 4.095-1.921 6.648 6.648 0 0 0 1.834-3.673 6.718 6.718 0 0 0-.66-4.067l-5.766-8.647-5.766 8.647Z"/>
  </symbol>
  <symbol id="Search" viewBox="0 0 24 24" fill="currentColor" stroke="none">
    <path
      d="m22.734 21.445-5.39-5.387a9.212 9.212 0 0 0 2.091-5.838C19.435 5.135 15.3 1 10.22 1a9.133 9.133 0 0 0-3.585.725A9.209 9.209 0 0 0 3.704 3.7a9.219 9.219 0 0 0-1.977 2.93A9.143 9.143 0 0 0 1 10.218c0 5.085 4.136 9.22 9.216 9.22 2.131 0 4.19-.74 5.837-2.091l5.385 5.386a.907.907 0 0 0 .646.268.9.9 0 0 0 .645-.268.906.906 0 0 0 .005-1.287ZM17.61 10.217c0 4.079-3.316 7.394-7.391 7.394-4.077 0-7.392-3.317-7.392-7.394 0-4.076 3.317-7.394 7.392-7.394s7.391 3.318 7.391 7.394Z"/>
  </symbol>
  <symbol id="Snowflake" viewBox="0 0 24 24" fill="currentColor" stroke="none">
    <path
      d="m18.148 9.045 2.675 1.546a.513.513 0 0 0 .703-.188.515.515 0 0 0-.188-.704l-2.16-1.248 2.16-1.248a.514.514 0 1 0-.515-.891l-2.16 1.246V5.064a.515.515 0 1 0-1.03 0v3.09l-5.117 2.953V5.2l2.675-1.546a.514.514 0 1 0-.516-.892L12.518 4.01V1.515a.516.516 0 0 0-1.031 0V4.01L9.324 2.762a.514.514 0 1 0-.515.892L11.485 5.2v5.908L6.369 8.154v-3.09a.515.515 0 0 0-1.03 0v2.494L3.177 6.311a.515.515 0 0 0-.516.892L4.823 8.45l-2.16 1.248a.515.515 0 0 0 .515.892l2.675-1.545L10.97 12l-5.117 2.955-2.675-1.545a.516.516 0 0 0-.516.892l2.161 1.248-2.16 1.247a.515.515 0 0 0 .515.893l2.16-1.248v2.495a.515.515 0 0 0 1.03 0v-3.09l5.118-2.954V18.8l-2.678 1.544a.516.516 0 0 0 .516.893l2.162-1.248v2.495a.515.515 0 0 0 1.03 0V19.99l2.16 1.247a.513.513 0 0 0 .703-.188.515.515 0 0 0-.188-.704L12.515 18.8v-5.909l5.117 2.955v3.09a.515.515 0 1 0 1.03 0V16.44l2.16 1.247a.515.515 0 1 0 .515-.892l-2.16-1.248 2.16-1.247a.514.514 0 1 0-.515-.892l-2.676 1.544L13.03 12l5.117-2.954Z"/>
  </symbol>
  <symbol id="SnowWithRain" viewBox="0 0 24 24" fill="currentColor"
          stroke="none">
    <path
      d="M3.744 16.744a.487.487 0 0 1 .357.045c.109.06.188.16.221.276a.441.441 0 0 1-.047.345 1.772 1.772 0 0 0 .152 2.016c.152.188.342.345.557.463l.009-.008c.108.06.188.16.22.276a.442.442 0 0 1-.046.346.486.486 0 0 1-.644.168 2.797 2.797 0 0 1-.835-.694 2.687 2.687 0 0 1-.496-.95 2.631 2.631 0 0 1 .266-2.07.47.47 0 0 1 .286-.213Z"/>
    <path fill-rule="evenodd"
          d="M5.996 10a.465.465 0 0 1 .392.203l4.008 5.68c.01.015.02.03.028.045.4.735.599 1.558.574 2.388a4.703 4.703 0 0 1-.718 2.353 4.924 4.924 0 0 1-1.822 1.708A5.144 5.144 0 0 1 6 23a5.144 5.144 0 0 1-2.458-.623 4.924 4.924 0 0 1-1.822-1.708 4.703 4.703 0 0 1-.718-2.353 4.688 4.688 0 0 1 .6-2.432l4.002-5.68A.465.465 0 0 1 5.996 10Zm-3.6 6.373a3.796 3.796 0 0 0-.35 2.697c.222.91.774 1.715 1.555 2.268a4.167 4.167 0 0 0 2.71.745 4.127 4.127 0 0 0 2.559-1.136 3.854 3.854 0 0 0 1.146-2.17 3.781 3.781 0 0 0-.413-2.404L6 11.265l-3.604 5.108Z"
          clip-rule="evenodd"/>
    <path
      d="M16.8 1c.184 0 .334.15.334.333v1.611l1.394-.805a.333.333 0 0 1 .333.576l-1.727.999V7.53l3.305-1.908V3.626a.332.332 0 0 1 .666 0v1.611l1.396-.805a.333.333 0 0 1 .333.576l-1.397.806 1.397.806a.333.333 0 0 1-.333.577l-1.729-.999-3.306 1.91 3.305 1.908 1.73-.998a.333.333 0 0 1 .333.577l-1.397.805 1.397.807a.332.332 0 0 1-.333.576l-1.396-.806v1.613a.333.333 0 0 1-.666 0v-1.997l-3.305-1.908v3.817l1.727.997a.334.334 0 0 1-.333.577l-1.394-.806v1.613a.333.333 0 0 1-.666 0V13.27l-1.398.805a.334.334 0 0 1-.333-.576l1.73-.998V8.684l-3.306 1.909v1.997a.333.333 0 0 1-.666 0v-1.613l-1.396.806a.331.331 0 0 1-.455-.122.333.333 0 0 1 .122-.454l1.397-.807-1.397-.805a.333.333 0 1 1 .333-.576l1.729.998 3.306-1.91-3.306-1.909-1.729 1a.334.334 0 0 1-.333-.577l1.397-.807-1.397-.806a.332.332 0 1 1 .333-.576l1.396.805V3.626a.332.332 0 0 1 .666 0v1.997l3.307 1.908V3.714l-1.73-1a.332.332 0 0 1 .332-.575l1.398.806V1.333c0-.183.149-.333.333-.333Z"/>
  </symbol>
  <symbol id="UVIndex" viewBox="0 0 24 24" fill="currentColor" stroke="none">
    <path fill-rule="evenodd" clip-rule="evenodd"
          d="m14.97 13.722 4.51 2.595a8.641 8.641 0 0 0 1.152-4.31 8.65 8.65 0 0 0-.787-3.617l-4.474 2.583c-.023.022-.059.035-.083.047.093.305.14.647.14.987 0 .623-.163 1.21-.457 1.715Zm-2.736-3.7.752-1.305 1.386-2.42a.797.797 0 0 1 1.092-.282.787.787 0 0 1 .281 1.082L14.36 9.504l-.752 1.305c.246.342.387.752.387 1.2 0 .55-.224 1.044-.588 1.408a1.956 1.956 0 0 1-1.409.587 1.963 1.963 0 0 1-1.409-.587 1.977 1.977 0 0 1-.586-1.408c0-.554.224-1.057.586-1.424.352-.35.858-.576 1.409-.576.085 0 .155 0 .236.013Zm.752-1.305c.516.153.986.437 1.374.787.047.048.095.095.14.153.025-.025.048-.035.07-.058l4.475-2.585a8.638 8.638 0 0 0-6.247-3.607v5.169c0 .023 0 .06-.01.083.07.023.128.033.198.058ZM12 1C5.928 1 1.006 5.935 1.006 12.006 1.006 18.078 5.928 23 12 23s10.994-4.922 10.994-10.994C22.992 5.935 18.072 1 12 1Zm0 1.494c5.25 0 9.502 4.263 9.502 9.513 0 5.249-4.25 9.5-9.502 9.5a9.499 9.499 0 0 1-9.502-9.5c0-5.25 4.253-9.513 9.502-9.513Zm-.8.913a8.63 8.63 0 0 0-6.248 3.607l4.475 2.585c.023.023.047.033.07.058a3.54 3.54 0 0 1 1.715-.999c-.012-.022-.012-.06-.012-.082V3.407ZM4.154 8.389a8.658 8.658 0 0 0-.787 3.617 8.62 8.62 0 0 0 1.152 4.311l4.51-2.596a3.403 3.403 0 0 1-.458-1.715c0-.34.048-.681.141-.986-.023-.01-.058-.025-.083-.048L4.154 8.39Z"/>
  </symbol>
  <symbol id="Visibility" viewBox="0 0 24 24" fill="currentColor" stroke="none">
    <path
      d="M3.822 17.08v2.256c0 .31.252.563.564.564h15.228a.564.564 0 0 0 .564-.564v-2.257h1.693v2.256l-.012.23a2.257 2.257 0 0 1-2.014 2.015l-.23.012H4.384a2.257 2.257 0 0 1-2.256-2.256v-2.257h1.693Z"/>
    <path fill-rule="evenodd"
          d="M12 5.797a4.23 4.23 0 1 1-.001 8.462A4.23 4.23 0 0 1 12 5.797Zm.972 1.885a2.54 2.54 0 1 0-1.943 4.693 2.54 2.54 0 0 0 1.943-4.693Z"
          clip-rule="evenodd"/>
    <path fill-rule="evenodd" clip-rule="evenodd"
          d="M12 2.408a12.253 12.253 0 0 1 10.595 6.097 3.058 3.058 0 0 1 0 3.045 12.256 12.256 0 0 1-16.706 4.465 12.253 12.253 0 0 1-4.482-4.465 3.057 3.057 0 0 1 0-3.045A12.253 12.253 0 0 1 12 2.408Zm0 1.695A10.56 10.56 0 0 0 2.873 9.35a1.376 1.376 0 0 0 0 1.353A10.563 10.563 0 0 0 12 15.954a10.561 10.561 0 0 0 9.127-5.25 1.376 1.376 0 0 0 0-1.353A10.563 10.563 0 0 0 12 4.103Z"/>
  </symbol>
  <symbol id="Wind" viewBox="0 0 24 24" fill="currentColor" stroke="none">
    <path
      d="M19.917 6.457a3.15 3.15 0 0 0-2.983 2.12.792.792 0 0 0 1.495.515 1.556 1.556 0 0 1 1.48-1.045c.87 0 1.583.712 1.583 1.583 0 .87-.712 1.583-1.583 1.583H6.464a.794.794 0 0 0-.791.791c0 .435.356.791.791.791h13.453a3.166 3.166 0 0 0 0-6.33v-.008Z"/>
    <path
      d="M15.169 5.665A3.162 3.162 0 0 0 12.004 2.5 3.15 3.15 0 0 0 9.02 4.62a.792.792 0 0 0 1.496.516 1.556 1.556 0 0 1 1.48-1.045c.87 0 1.582.712 1.582 1.582 0 .87-.712 1.583-1.582 1.583H1.716a.794.794 0 0 0-.791.791c0 .436.356.792.791.792h10.288a3.165 3.165 0 0 0 3.165-3.166v-.008Zm-.791 9.496H3.299a.794.794 0 0 0-.791.792c0 .435.356.791.791.791h11.079c.87 0 1.582.712 1.582 1.583a1.587 1.587 0 0 1-2.49 1.297 1.556 1.556 0 0 1-.572-.759.793.793 0 0 0-1.005-.49.793.793 0 0 0-.49 1.004 3.15 3.15 0 0 0 2.982 2.121 3.165 3.165 0 0 0 0-6.33l-.007-.009Z"/>
  </symbol>
</svg>
