<svg xmlns="http://www.w3.org/2000/svg">
  <symbol id="ru" viewBox="0 0 24 24">
    <mask id="mask_ru" style="mask-type:luminance" maskUnits="userSpaceOnUse"
          x="0" y="4" width="24" height="16">
      <path
        d="M0 5.8413C0 4.82435 0.89543 4 2 4H22C23.1046 4 24 4.82438 24 5.8413V18.1587C24 19.1756 23.1046 20 22 20H2C0.8954 20 0 19.1756 0 18.1587V5.8413Z"
        fill="#FFF"/>
    </mask>
    <g mask="url(#mask_ru)">
      <path
        d="M24 18.1589C23.9999 19.1757 23.1043 20 21.9993 20H1.99284C0.939404 20 0.0782191 19.2506 0 18.2995V14.6667H24V18.1589Z"
        fill="#E53B35"/>
      <rect x="0.00201416" y="9.33333" width="23.996" height="5.33333"
            fill="#0C47B7"/>
      <path
        d="M22.0022 4C23.078 4 23.9528 4.6742 23.9979 5.51923V9.33333H0.00219727V5.58733C0.00228932 4.71064 0.897684 4 2.0022 4H22.0022Z"
        fill="#FFF"/>
      <path
        d="M22.0022 4C23.078 4 23.9528 4.6742 23.9979 5.51923V9.33333H23.5556V5.84115C23.5555 5.10362 22.8944 4.44444 22 4.44444H2.00003C1.10567 4.44444 0.444565 5.1036 0.444472 5.84115V9.33333H0.00219727V5.58733C0.00228357 4.76541 0.789269 4.08907 1.79777 4.00781L2.0022 4H22.0022Z"
        fill="#F5F5F5"/>
    </g>
  </symbol>
  <symbol id="us" viewBox="0 0 24 24">
    <mask id="mask_us" style="mask-type:luminance"
          maskUnits="userSpaceOnUse" x="0" y="4" width="24" height="16">
      <path
        d="M0 5.8413C0 4.82435 0.89543 4 2 4H22C23.1046 4 24 4.82438 24 5.8413V18.1587C24 19.1756 23.1046 20 22 20H2C0.8954 20 0 19.1756 0 18.1587V5.8413Z"
        fill="#FFF"/>
    </mask>
    <g mask="url(#mask_us)">
      <path d="M10.3448 4H24V20.0003H0V11.4666H10.3448V4Z" fill="#FFF"/>
      <path
        d="M0.413793 11.4666V20.0003H0V11.4666H0.413793ZM24 4V20.0003H23.5862V4H24Z"
        fill="#F5F5F5"/>
      <path
        d="M24 20.0003H0V18.9333H24V20.0003ZM24 17.867H0V16.8001H24V17.867ZM24 15.7339H0V14.6669H24V15.7339ZM24 13.5999H0V12.5336H24V13.5999ZM24 11.4666H10.3448V10.4004H24V11.4666ZM24 9.33343H10.3448V8.26645H24V9.33343ZM24 7.2002H10.3448V6.13322H24V7.2002ZM24 5.06698H10.3448V4H24V5.06698Z"
        fill="#D02F44"/>
      <path d="M0 4H10.3448V11.4666H0V4Z" fill="#46467F"/>
      <path
        d="M2.2974 5.43332C2.2974 5.75089 2.03996 6.00832 1.7224 6.00832C1.40484 6.00832 1.1474 5.75089 1.1474 5.43332C1.1474 5.11576 1.40484 4.85832 1.7224 4.85832C2.03996 4.85832 2.2974 5.11576 2.2974 5.43332Z"
        fill="#FFF"/>
      <path
        d="M4.5974 5.43332C4.5974 5.75089 4.33996 6.00832 4.0224 6.00832C3.70484 6.00832 3.4474 5.75089 3.4474 5.43332C3.4474 5.11576 3.70484 4.85832 4.0224 4.85832C4.33996 4.85832 4.5974 5.11576 4.5974 5.43332Z"
        fill="#FFF"/>
      <path
        d="M6.8974 5.43332C6.8974 5.75089 6.63996 6.00832 6.3224 6.00832C6.00484 6.00832 5.7474 5.75089 5.7474 5.43332C5.7474 5.11576 6.00484 4.85832 6.3224 4.85832C6.63996 4.85832 6.8974 5.11576 6.8974 5.43332Z"
        fill="#FFF"/>
      <path
        d="M9.1974 5.43332C9.1974 5.75089 8.93996 6.00832 8.6224 6.00832C8.30484 6.00832 8.0474 5.75089 8.0474 5.43332C8.0474 5.11576 8.30484 4.85832 8.6224 4.85832C8.93996 4.85832 9.1974 5.11576 9.1974 5.43332Z"
        fill="#FFF"/>
      <path
        d="M3.4474 6.58332C3.4474 6.90089 3.18996 7.15832 2.8724 7.15832C2.55484 7.15832 2.2974 6.90089 2.2974 6.58332C2.2974 6.26576 2.55484 6.00832 2.8724 6.00832C3.18996 6.00832 3.4474 6.26576 3.4474 6.58332Z"
        fill="#FFF"/>
      <path
        d="M5.7474 6.58332C5.7474 6.90089 5.48996 7.15832 5.1724 7.15832C4.85484 7.15832 4.5974 6.90089 4.5974 6.58332C4.5974 6.26576 4.85484 6.00832 5.1724 6.00832C5.48996 6.00832 5.7474 6.26576 5.7474 6.58332Z"
        fill="#FFF"/>
      <path
        d="M8.0474 6.58332C8.0474 6.90089 7.78996 7.15832 7.4724 7.15832C7.15484 7.15832 6.8974 6.90089 6.8974 6.58332C6.8974 6.26576 7.15484 6.00832 7.4724 6.00832C7.78996 6.00832 8.0474 6.26576 8.0474 6.58332Z"
        fill="#FFF"/>
      <path
        d="M2.2974 7.73332C2.2974 8.05089 2.03996 8.30832 1.7224 8.30832C1.40484 8.30832 1.1474 8.05089 1.1474 7.73332C1.1474 7.41576 1.40484 7.15832 1.7224 7.15832C2.03996 7.15832 2.2974 7.41576 2.2974 7.73332Z"
        fill="#FFF"/>
      <path
        d="M4.5974 7.73332C4.5974 8.05089 4.33996 8.30832 4.0224 8.30832C3.70484 8.30832 3.4474 8.05089 3.4474 7.73332C3.4474 7.41576 3.70484 7.15832 4.0224 7.15832C4.33996 7.15832 4.5974 7.41576 4.5974 7.73332Z"
        fill="#FFF"/>
      <path
        d="M6.8974 7.73332C6.8974 8.05089 6.63996 8.30832 6.3224 8.30832C6.00484 8.30832 5.7474 8.05089 5.7474 7.73332C5.7474 7.41576 6.00484 7.15832 6.3224 7.15832C6.63996 7.15832 6.8974 7.41576 6.8974 7.73332Z"
        fill="#FFF"/>
      <path
        d="M9.1974 7.73332C9.1974 8.05089 8.93996 8.30832 8.6224 8.30832C8.30484 8.30832 8.0474 8.05089 8.0474 7.73332C8.0474 7.41576 8.30484 7.15832 8.6224 7.15832C8.93996 7.15832 9.1974 7.41576 9.1974 7.73332Z"
        fill="#FFF"/>
      <path
        d="M3.4474 8.88332C3.4474 9.20089 3.18996 9.45832 2.8724 9.45832C2.55484 9.45832 2.2974 9.20089 2.2974 8.88332C2.2974 8.56576 2.55484 8.30832 2.8724 8.30832C3.18996 8.30832 3.4474 8.56576 3.4474 8.88332Z"
        fill="#FFF"/>
      <path
        d="M5.7474 8.88332C5.7474 9.20089 5.48996 9.45832 5.1724 9.45832C4.85484 9.45832 4.5974 9.20089 4.5974 8.88332C4.5974 8.56576 4.85484 8.30832 5.1724 8.30832C5.48996 8.30832 5.7474 8.56576 5.7474 8.88332Z"
        fill="#FFF"/>
      <path
        d="M8.0474 8.88332C8.0474 9.20089 7.78996 9.45832 7.4724 9.45832C7.15484 9.45832 6.8974 9.20089 6.8974 8.88332C6.8974 8.56576 7.15484 8.30832 7.4724 8.30832C7.78996 8.30832 8.0474 8.56576 8.0474 8.88332Z"
        fill="#FFF"/>
      <path
        d="M2.2974 10.0333C2.2974 10.3509 2.03996 10.6083 1.7224 10.6083C1.40484 10.6083 1.1474 10.3509 1.1474 10.0333C1.1474 9.71576 1.40484 9.45832 1.7224 9.45832C2.03996 9.45832 2.2974 9.71576 2.2974 10.0333Z"
        fill="#FFF"/>
      <path
        d="M4.5974 10.0333C4.5974 10.3509 4.33996 10.6083 4.0224 10.6083C3.70484 10.6083 3.4474 10.3509 3.4474 10.0333C3.4474 9.71576 3.70484 9.45832 4.0224 9.45832C4.33996 9.45832 4.5974 9.71576 4.5974 10.0333Z"
        fill="#FFF"/>
      <path
        d="M6.8974 10.0333C6.8974 10.3509 6.63996 10.6083 6.3224 10.6083C6.00484 10.6083 5.7474 10.3509 5.7474 10.0333C5.7474 9.71576 6.00484 9.45832 6.3224 9.45832C6.63996 9.45832 6.8974 9.71576 6.8974 10.0333Z"
        fill="#FFF"/>
      <path
        d="M9.1974 10.0333C9.1974 10.3509 8.93996 10.6083 8.6224 10.6083C8.30484 10.6083 8.0474 10.3509 8.0474 10.0333C8.0474 9.71576 8.30484 9.45832 8.6224 9.45832C8.93996 9.45832 9.1974 9.71576 9.1974 10.0333Z"
        fill="#FFF"/>
    </g>
  </symbol>
</svg>
