<svg xmlns="http://www.w3.org/2000/svg">
  <symbol id="github" viewBox="0 0 24 24" fill="currentColor" stroke="none">
    <path fill-rule="evenodd" clip-rule="evenodd"
          d="M12.0516 1.25C6.21683 1.25 1.5 5.9479 1.5 11.7598C1.5 16.4056 4.52223 20.3382 8.71488 21.7301C9.23906 21.8347 9.43107 21.5039 9.43107 21.2257C9.43107 20.982 9.41379 20.1469 9.41379 19.2767C6.4786 19.9032 5.86737 18.0238 5.86737 18.0238C5.39567 16.8058 4.69675 16.4928 4.69675 16.4928C3.73606 15.8489 4.76673 15.8489 4.76673 15.8489C5.83238 15.9185 6.39156 16.9277 6.39156 16.9277C7.33475 18.5284 8.85462 18.0762 9.46606 17.7977C9.55332 17.1191 9.83301 16.6493 10.13 16.3883C7.78896 16.1447 5.3259 15.2399 5.3259 11.2029C5.3259 10.0545 5.74491 9.11492 6.40884 8.38418C6.30409 8.12324 5.93713 7.04422 6.5138 5.60004C6.5138 5.60004 7.40473 5.32158 9.41358 6.67885C10.2736 6.44879 11.1606 6.33176 12.0516 6.33078C12.9425 6.33078 13.8507 6.45271 14.6894 6.67885C16.6984 5.32158 17.5894 5.60004 17.5894 5.60004C18.166 7.04422 17.7989 8.12324 17.6941 8.38418C18.3755 9.11492 18.7773 10.0545 18.7773 11.2029C18.7773 15.2399 16.3142 16.1272 13.9557 16.3883C14.3401 16.7189 14.6719 17.3452 14.6719 18.3371C14.6719 19.7465 14.6546 20.8776 14.6546 21.2255C14.6546 21.5039 14.8468 21.8347 15.3708 21.7303C19.5634 20.338 22.5857 16.4056 22.5857 11.7598C22.6029 5.9479 17.8688 1.25 12.0516 1.25Z"/>
  </symbol>
  <symbol id="figma" viewBox="0 0 24 24" fill="currentColor" stroke="none">
    <path fill-rule="evenodd" clip-rule="evenodd"
          d="M6.36886 8.55465C5.24378 7.82154 4.5 6.55229 4.5 5.10927C4.5 2.83979 6.33979 1 8.60927 1H15.6498C17.9193 1 19.7591 2.83979 19.7591 5.10927C19.7591 6.55229 19.0153 7.82154 17.8902 8.55465C19.0153 9.28777 19.7591 10.5571 19.7591 12C19.7591 14.2695 17.9193 16.1093 15.6498 16.1093H15.5749C14.5021 16.1093 13.5253 15.6982 12.7934 15.0249V18.8533C12.7934 21.1481 10.9134 23 8.6279 23C6.36307 23 4.5 21.1649 4.5 18.8907C4.5 17.4477 5.24375 16.1785 6.36879 15.4454C5.24375 14.7123 4.5 13.443 4.5 12C4.5 10.5571 5.24378 9.28777 6.36886 8.55465ZM12.7934 12C12.7934 13.5362 14.0388 14.7815 15.5749 14.7815H15.6498C17.1859 14.7815 18.4312 13.5362 18.4312 12C18.4312 10.4639 17.1859 9.21861 15.6498 9.21861H15.5749C14.0388 9.21861 12.7934 10.4639 12.7934 12ZM11.4656 9.21861H8.60927C7.07312 9.21861 5.82785 10.4639 5.82785 12C5.82785 13.5331 7.0681 14.7764 8.59992 14.7815H8.60428H11.4656V9.21861ZM8.60927 16.1093C8.60615 16.1093 8.60304 16.1093 8.59992 16.1093C7.0681 16.1143 5.82785 17.3577 5.82785 18.8907C5.82785 20.4222 7.08709 21.6722 8.6279 21.6722C10.1894 21.6722 11.4656 20.4055 11.4656 18.8533V16.1093H8.60927ZM11.4656 7.89069H8.60927C7.07312 7.89069 5.82785 6.64542 5.82785 5.10927C5.82785 3.57312 7.07312 2.32785 8.60927 2.32785H11.4656V7.89069ZM15.6498 7.89069H12.7934V2.32785H15.6498C17.1859 2.32785 18.4312 3.57312 18.4312 5.10927C18.4312 6.64542 17.1859 7.89069 15.6498 7.89069Z"/>
  </symbol>
</svg>
