<svg xmlns="http://www.w3.org/2000/svg">
  <symbol id="github" viewBox="0 0 24 24">
    <path
      d="M0 4C0 1.79086 1.79086 0 4 0H20C22.2091 0 24 1.79086 24 4V20C24 22.2091 22.2091 24 20 24H4C1.79086 24 0 22.2091 0 20V4Z"
      fill="black"/>
    <path fill-rule="evenodd" clip-rule="evenodd"
          d="M12.0516 1.25C6.21683 1.25 1.5 5.9479 1.5 11.7598C1.5 16.4056 4.52223 20.3382 8.71488 21.7301C9.23906 21.8347 9.43107 21.5039 9.43107 21.2257C9.43107 20.982 9.41379 20.1469 9.41379 19.2767C6.4786 19.9032 5.86737 18.0238 5.86737 18.0238C5.39567 16.8058 4.69675 16.4928 4.69675 16.4928C3.73606 15.8489 4.76673 15.8489 4.76673 15.8489C5.83238 15.9185 6.39156 16.9277 6.39156 16.9277C7.33475 18.5284 8.85462 18.0762 9.46606 17.7977C9.55332 17.1191 9.83301 16.6493 10.13 16.3883C7.78896 16.1447 5.3259 15.2399 5.3259 11.2029C5.3259 10.0545 5.74491 9.11492 6.40884 8.38418C6.30409 8.12324 5.93713 7.04422 6.5138 5.60004C6.5138 5.60004 7.40473 5.32158 9.41358 6.67885C10.2736 6.44879 11.1606 6.33176 12.0516 6.33078C12.9425 6.33078 13.8507 6.45271 14.6894 6.67885C16.6984 5.32158 17.5894 5.60004 17.5894 5.60004C18.166 7.04422 17.7989 8.12324 17.6941 8.38418C18.3755 9.11492 18.7773 10.0545 18.7773 11.2029C18.7773 15.2399 16.3142 16.1272 13.9557 16.3883C14.3401 16.7189 14.6719 17.3452 14.6719 18.3371C14.6719 19.7465 14.6546 20.8776 14.6546 21.2255C14.6546 21.5039 14.8468 21.8347 15.3708 21.7303C19.5634 20.338 22.5857 16.4056 22.5857 11.7598C22.6029 5.9479 17.8688 1.25 12.0516 1.25Z"
          fill="white"/>
  </symbol>
  <symbol id="figma" viewBox="0 0 24 24">
    <path
      d="M0 4C0 1.79086 1.79086 0 4 0H20C22.2091 0 24 1.79086 24 4V20C24 22.2091 22.2091 24 20 24H4C1.79086 24 0 22.2091 0 20V4Z"
      fill="black"/>
    <path
      d="M5.5 18.6678C5.5 16.8267 6.9925 15.3342 8.83358 15.3342H12.167V18.6678C12.167 20.5088 10.6747 22.0014 8.83358 22.0014C6.9925 22.0014 5.5 20.5088 5.5 18.6678Z"
      fill="#24CB71"/>
    <path
      d="M12.167 2V8.66701H15.5006C17.3416 8.66701 18.8341 7.17467 18.8341 5.33359C18.8341 3.49251 17.3416 2 15.5006 2H12.167Z"
      fill="#FF7237"/>
    <path
      d="M15.4729 15.3342C17.3139 15.3342 18.8064 13.8417 18.8064 12.0006C18.8064 10.1595 17.3139 8.66705 15.4729 8.66705C13.6318 8.66705 12.1393 10.1595 12.1393 12.0006C12.1393 13.8417 13.6318 15.3342 15.4729 15.3342Z"
      fill="#00B6FF"/>
    <path
      d="M5.5 5.33359C5.5 7.17467 6.9925 8.66717 8.83358 8.66717L12.167 8.66701V2H8.83358C6.9925 2 5.5 3.49251 5.5 5.33359Z"
      fill="#FF3737"/>
    <path
      d="M5.5 12.0006C5.5 13.8417 6.9925 15.3342 8.83358 15.3342H12.167L12.167 8.66701L8.83358 8.66717C6.9925 8.66717 5.5 10.1595 5.5 12.0006Z"
      fill="#874FFF"/>
  </symbol>
</svg>
