<svg xmlns="http://www.w3.org/2000/svg">
  <!-- Code: 1000 -->
  <symbol id="1000-day" viewBox="0 0 48 48">
    <path fill="#EDC148"
          d="m42.364 21.664 2.803 1.486-.02.04a.673.673 0 0 1 0 1.183l-2.69 1.445a3.084 3.084 0 0 0-1.512 2.017c-.06.282-.127.564-.208.84a3.037 3.037 0 0 0 .316 2.494l1.687 2.689a.672.672 0 0 1 0 .672.605.605 0 0 1-.605.336l-2.958-.1a3.18 3.18 0 0 0-2.467.987c-.195.209-.397.417-.599.612a3.005 3.005 0 0 0-.947 2.272l.114 3.253a.671.671 0 0 1-1.029.599l-2.655-1.66a3.026 3.026 0 0 0-2.488-.37l-.787.215a3.154 3.154 0 0 0-2.016 1.613l-1.513 2.857a.67.67 0 0 1-.592.356.672.672 0 0 1-.598-.356l-1.546-2.91a3.213 3.213 0 0 0-2.084-1.587 19.565 19.565 0 0 1-.895-.249 3.06 3.06 0 0 0-2.561.29l-2.763 1.727a.673.673 0 0 1-1.029-.592l.121-3.489a3.073 3.073 0 0 0-.854-2.258 9.406 9.406 0 0 1-.437-.457 2.952 2.952 0 0 0-2.265-.914l-3.409.12a.672.672 0 0 1-.605-1.008l1.93-3.085a2.944 2.944 0 0 0 .363-2.306l-.094-.383a3.254 3.254 0 0 0-1.614-2.124l-3.005-1.58a.672.672 0 0 1 0-1.183l3.193-1.694a3.187 3.187 0 0 0 1.56-2.016.41.41 0 0 0 .04-.141 3.253 3.253 0 0 0-.329-2.669l-1.835-2.93a.672.672 0 0 1 .605-1.009l3.576.121a3.215 3.215 0 0 0 2.36-.961l.161-.161a3.213 3.213 0 0 0 1.022-2.414l-.12-3.421a.672.672 0 0 1 1.028-.585l2.931 1.829a3.019 3.019 0 0 0 2.434.376l.107-.034.498-.127a3.052 3.052 0 0 0 1.956-1.553l1.54-2.91a.672.672 0 0 1 .946-.255.673.673 0 0 1 .244.268l1.546 2.91a3.226 3.226 0 0 0 2.077 1.58h.054a3.174 3.174 0 0 0 2.528-.356l2.89-1.822a.673.673 0 0 1 1.01.605l-.108 3.14a3.038 3.038 0 0 0 .934 2.406c.202.181.397.37.592.557a3.071 3.071 0 0 0 2.252.928l3.362-.12a.673.673 0 0 1 .605 1.007l-1.58 2.535a3.092 3.092 0 0 0-.37 2.588c.087.255.168.544.242.82a3.172 3.172 0 0 0 1.56 2.016Z"/>
    <path fill="#F5DF66"
          d="M24 10.56a13.436 13.436 0 1 0 13.436 13.437A13.451 13.451 0 0 0 24 10.56Z"/>
  </symbol>
  <symbol id="1000-night" viewBox="0 0 48 48">
    <path fill="#F5DF66"
          d="M5.775 23.998c0 10.52 8.507 19.047 19 19.047 7.717 0 14.359-4.611 17.334-11.236a.2.2 0 0 0-.166-.28c-9.634-.924-17.168-9.06-17.168-18.96 0-2.586.514-5.051 1.445-7.3a.2.2 0 0 0-.17-.277 19.236 19.236 0 0 0-1.275-.042c-10.493 0-19 8.528-19 19.048Z"/>
    <path fill="#EDC148"
          d="M7.927 15.201a19.22 19.22 0 0 0-.252 3.09c0 10.52 8.507 19.048 19 19.048 5.456 0 10.373-2.307 13.838-6 .39.068.782.129 1.178.172.26.028.422.3.312.536-3.024 6.5-9.6 11.006-17.228 11.006-10.493 0-19-8.528-19-19.048 0-3.177.78-6.17 2.152-8.803Z"/>
  </symbol>
</svg>
