<svg xmlns="http://www.w3.org/2000/svg">
  <!-- =========== Common parts =========== -->
  <!-- Code: 1000 -->
  <symbol id="1000-1" viewBox="0 0 60 60">
    <rect x="16.9945" y="12.1053" width="4.63158" height="6.94737" rx="1"
          transform="rotate(-30 16.9945 12.1053)" fill="#FFB100"/>
    <rect x="9.78957" y="21.0055" width="4.63158" height="6.94737" rx="1"
          transform="rotate(-60 9.78957 21.0055)" fill="#FFB100"/>
    <rect x="8.00002" y="32.3158" width="4.63158" height="6.94737" rx="1"
          transform="rotate(-90 8.00002 32.3158)" fill="#FFB100"/>
    <rect x="12.1053" y="43.0056" width="4.63158" height="6.94737" rx="1"
          transform="rotate(-120 12.1053 43.0056)" fill="#FFB100"/>
    <rect x="21.0056" y="50.2105" width="4.63158" height="6.94737" rx="1"
          transform="rotate(-150 21.0056 50.2105)" fill="#FFB100"/>
    <rect x="27.6842" y="45.0526" width="4.63158" height="6.94737" rx="1"
          fill="#FFB100"/>
    <rect x="35.5208" y="44.1938" width="4.63158" height="6.94737" rx="1"
          transform="rotate(-30 35.5208 44.1938)" fill="#FFB100"/>
    <rect x="41.878" y="39.5319" width="4.63158" height="6.94737" rx="1"
          transform="rotate(-60 41.878 39.5319)" fill="#FFB100"/>
    <rect x="45.0526" y="32.3158" width="4.63158" height="6.94737" rx="1"
          transform="rotate(-90 45.0526 32.3158)" fill="#FFB100"/>
    <rect x="44.1939" y="24.4792" width="4.63158" height="6.94737" rx="1"
          transform="rotate(-120 44.1939 24.4792)" fill="#FFB100"/>
    <rect x="39.5319" y="18.1219" width="4.63158" height="6.94737" rx="1"
          transform="rotate(-150 39.5319 18.1219)" fill="#FFB100"/>
    <rect x="27.6842" y="8" width="4.63158" height="6.94737" rx="1"
          fill="#FFB100"/>
    <path
      d="M30.0001 19.921C35.5665 19.9211 40.0793 24.4337 40.0793 30.0001C40.0792 35.5664 35.5665 40.0791 30.0001 40.0792C24.4338 40.0792 19.9211 35.5665 19.921 30.0001C19.921 24.4337 24.4337 19.921 30.0001 19.921Z"
      fill="#FFF100" stroke="#FFB100" stroke-width="3"/>
  </symbol>
  <symbol id="1000-0" viewBox="0 0 60 60">
    <path
      d="M0 19.0476C0 29.5673 8.50659 38.0952 19 38.0952C26.7166 38.0952 33.3588 33.4835 36.3338 26.8593C36.3899 26.7345 36.3039 26.5923 36.1676 26.5792C26.5339 25.655 19 17.5191 19 7.61905C19 5.03319 19.514 2.56768 20.4451 0.319596C20.4975 0.193111 20.4122 0.0513289 20.2756 0.0422505C19.854 0.0142318 19.4287 0 19 0C8.50659 0 0 8.52791 0 19.0476Z"
      fill="#EFDA45"/>
    <path
      d="M2.15234 10.2515C1.98867 11.2573 1.9 12.2889 1.9 13.3411C1.9 23.8608 10.4066 32.3887 20.9 32.3887C26.3558 32.3887 31.2728 30.0818 34.7381 26.3899C35.1272 26.4574 35.5195 26.5176 35.9163 26.561C36.1751 26.5893 36.338 26.8602 36.228 27.0967C33.2038 33.5975 26.627 38.103 19 38.103C8.50659 38.103 0 29.5751 0 19.0554C0 15.8783 0.780148 12.8851 2.15234 10.2515Z"
      fill="#EDC148"/>
  </symbol>

  <!-- Code: 1003 -->
  <symbol id="1003-1" viewBox="0 0 60 60">
    <use href="#sun"/>
    <use href="#cloud-light"/>
  </symbol>
  <symbol id="1003-0" viewBox="0 0 60 60">
    <use href="#moon"/>
    <use href="#cloud-light"/>
  </symbol>

  <!-- Code: 1006 -->
  <symbol id="1006" viewBox="0 0 60 60">
    <use href="#cloud-light" transform="translate(-4.6, 0)"/>
  </symbol>
  <symbol id="1006-1">
    <use href="#1006"/>
  </symbol>
  <symbol id="1006-0">
    <use href="#1006"/>
  </symbol>

  <!-- Code: 1009 -->
  <symbol id="1009" viewBox="0 0 60 60">
    <use href="#cloud-grey" transform="translate(-4.6, 0)"/>
  </symbol>
  <symbol id="1009-1">
    <use href="#1009"/>
  </symbol>
  <symbol id="1009-0">
    <use href="#1009"/>
  </symbol>

  <!-- Code: 1030 -->
  <symbol id="1030" viewBox="0 0 60 60">
    <use href="#cloud-grey" transform="translate(-4.6, 0)"/>
    <rect x="13" y="52" width="34" height="3" rx="1" fill="#E6E7E8"/>
  </symbol>
  <symbol id="1030-1">
    <use href="#1030"/>
  </symbol>
  <symbol id="1030-0">
    <use href="#1030"/>
  </symbol>

  <!-- Code: 1063, 1180, 1186, 1240 -->
  <symbol id="1063" viewBox="0 0 60 60">
    <path
      d="M33.4428 48.1029C33.4781 48.0394 33.545 48 33.6177 48H36.1601C36.3126 48 36.409 48.1638 36.3349 48.2971L31.5572 56.8971C31.5219 56.9606 31.455 57 31.3823 57H28.8399C28.6874 57 28.591 56.8362 28.6651 56.7029L33.4428 48.1029Z"
      fill="#1E87E8"/>
    <path
      d="M38.4428 48.1029C38.4781 48.0394 38.545 48 38.6177 48H41.1601C41.3126 48 41.409 48.1638 41.3349 48.2971L36.5572 56.8971C36.5219 56.9606 36.455 57 36.3823 57H33.8399C33.6874 57 33.591 56.8362 33.6651 56.7029L38.4428 48.1029Z"
      fill="#1E87E8"/>
    <use href="#cloud-grey"/>
  </symbol>
  <symbol id="1063-1">
    <use href="#sun"/>
    <use href="#1063"/>
  </symbol>
  <symbol id="1063-0">
    <use href="#moon"/>
    <use href="#1063"/>
  </symbol>
  <symbol id="1180-1">
    <use href="#sun"/>
    <use href="#1063"/>
  </symbol>
  <symbol id="1180-0">
    <use href="#moon"/>
    <use href="#1063"/>
  </symbol>
  <symbol id="1186-1">
    <use href="#sun"/>
    <use href="#1063"/>
  </symbol>
  <symbol id="1186-0">
    <use href="#moon"/>
    <use href="#1063"/>
  </symbol>
  <symbol id="1240-1">
    <use href="#sun"/>
    <use href="#1063"/>
  </symbol>
  <symbol id="1240-0">
    <use href="#moon"/>
    <use href="#1063"/>
  </symbol>

  <!-- Code: 1066, 1210, 1216, 1255 -->
  <symbol id="1066" viewBox="0 0 60 60">
    <path
      d="M36.134 56.4998C36.4101 56.9781 37.0217 57.142 37.5 56.8659C37.9783 56.5897 38.1422 55.9781 37.866 55.4998L36.8186 53.6857C36.7802 53.6191 36.8283 53.5357 36.9053 53.5357H39C39.5523 53.5357 40 53.088 40 52.5357C40 51.9835 39.5523 51.5357 39 51.5357H36.9053C36.8283 51.5357 36.7802 51.4524 36.8187 51.3857L37.866 49.5716C38.1422 49.0933 37.9783 48.4818 37.5 48.2056C37.0217 47.9295 36.4101 48.0933 36.134 48.5716L35.0866 50.3858C35.0481 50.4524 34.9519 50.4524 34.9134 50.3858L33.866 48.5716C33.5899 48.0933 32.9783 47.9295 32.5 48.2056C32.0217 48.4818 31.8578 49.0933 32.134 49.5716L33.1813 51.3857C33.2198 51.4524 33.1717 51.5357 33.0947 51.5357L31 51.5357C30.4477 51.5357 30 51.9835 30 52.5357C30 53.088 30.4477 53.5357 31 53.5357H33.0947C33.1717 53.5357 33.2198 53.6191 33.1814 53.6857L32.134 55.4998C31.8578 55.9781 32.0217 56.5897 32.5 56.8659C32.9783 57.142 33.5899 56.9781 33.866 56.4998L34.9134 54.6858C34.9519 54.6191 35.0481 54.6191 35.0866 54.6858L36.134 56.4998Z"
      fill="#E6E7E8"/>
    <use href="#cloud-grey"/>
  </symbol>
  <symbol id="1066-1">
    <use href="#sun"/>
    <use href="#1066"/>
  </symbol>
  <symbol id="1066-0">
    <use href="#moon"/>
    <use href="#1066"/>
  </symbol>
  <symbol id="1210-1">
    <use href="#sun"/>
    <use href="#1066"/>
  </symbol>
  <symbol id="1210-0">
    <use href="#moon"/>
    <use href="#1066"/>
  </symbol>
  <symbol id="1216-1">
    <use href="#sun"/>
    <use href="#1066"/>
  </symbol>
  <symbol id="1216-0">
    <use href="#moon"/>
    <use href="#1066"/>
  </symbol>
  <symbol id="1255-1">
    <use href="#sun"/>
    <use href="#1066"/>
  </symbol>
  <symbol id="1255-0">
    <use href="#moon"/>
    <use href="#1066"/>
  </symbol>

  <!-- Code: 1069, 1249 -->
  <symbol id="1069" viewBox="0 0 60 60">
    <path
      d="M28.4428 48.1029C28.4781 48.0394 28.545 48 28.6177 48H31.1601C31.3126 48 31.409 48.1638 31.3349 48.2971L26.5572 56.8971C26.5219 56.9606 26.455 57 26.3823 57H23.8399C23.6874 57 23.591 56.8362 23.6651 56.7029L28.4428 48.1029Z"
      fill="#1E87E8"/>
    <path
      d="M33.4428 48.1029C33.4781 48.0394 33.545 48 33.6177 48H36.1601C36.3126 48 36.409 48.1638 36.3349 48.2971L31.5572 56.8971C31.5219 56.9606 31.455 57 31.3823 57H28.8399C28.6874 57 28.591 56.8362 28.6651 56.7029L33.4428 48.1029Z"
      fill="#1E87E8"/>
    <path
      d="M42.634 56.4998C42.9101 56.9781 43.5217 57.142 44 56.8659C44.4783 56.5897 44.6422 55.9781 44.366 55.4998L43.3186 53.6857C43.2802 53.6191 43.3283 53.5357 43.4053 53.5357H45.5C46.0523 53.5357 46.5 53.088 46.5 52.5357C46.5 51.9835 46.0523 51.5357 45.5 51.5357H43.4053C43.3283 51.5357 43.2802 51.4524 43.3187 51.3857L44.366 49.5716C44.6422 49.0933 44.4783 48.4818 44 48.2056C43.5217 47.9295 42.9101 48.0933 42.634 48.5716L41.5866 50.3858C41.5481 50.4524 41.4519 50.4524 41.4134 50.3858L40.366 48.5716C40.0899 48.0933 39.4783 47.9295 39 48.2056C38.5217 48.4818 38.3578 49.0933 38.634 49.5716L39.6813 51.3857C39.7198 51.4524 39.6717 51.5357 39.5947 51.5357L37.5 51.5357C36.9477 51.5357 36.5 51.9835 36.5 52.5357C36.5 53.088 36.9477 53.5357 37.5 53.5357H39.5947C39.6717 53.5357 39.7198 53.6191 39.6814 53.6857L38.634 55.4998C38.3578 55.9781 38.5217 56.5897 39 56.8659C39.4783 57.142 40.0899 56.9781 40.366 56.4998L41.4134 54.6858C41.4519 54.6191 41.5481 54.6191 41.5866 54.6858L42.634 56.4998Z"
      fill="#E6E7E8"/>
    <use href="#cloud-grey"/>
  </symbol>
  <symbol id="1069-1">
    <use href="#sun"/>
    <use href="#1069"/>
  </symbol>
  <symbol id="1069-0">
    <use href="#moon"/>
    <use href="#1069"/>
  </symbol>
  <symbol id="1249-1">
    <use href="#sun"/>
    <use href="#1069"/>
  </symbol>
  <symbol id="1249-0">
    <use href="#moon"/>
    <use href="#1069"/>
  </symbol>

  <!-- Code: 1072 -->
  <symbol id="1072" viewBox="0 0 60 60">
    <use href="#cloud-grey" transform="translate(-4.6, 0)"/>
    <path
      d="M23.6468 50H18.3532C18.1978 50 18.1018 50.1696 18.1817 50.3029L20.8285 54.7142C20.9062 54.8436 21.0938 54.8436 21.1715 54.7142L23.8183 50.3029C23.8982 50.1696 23.8022 50 23.6468 50Z"
      fill="#E6E7E8"/>
    <path
      d="M26.9417 50.0971C26.9779 50.0369 27.043 50 27.1132 50H29.6468C29.8022 50 29.8982 50.1696 29.8183 50.3029L27.0583 54.9029C27.0221 54.9631 26.957 55 26.8868 55H24.3532C24.1978 55 24.1017 54.8304 24.1817 54.6971L26.9417 50.0971Z"
      fill="#E6E7E8"/>
    <path
      d="M32.9417 50.0971C32.9779 50.0369 33.043 50 33.1132 50H35.6468C35.8022 50 35.8982 50.1696 35.8183 50.3029L33.0583 54.9029C33.0221 54.9631 32.957 55 32.8868 55H30.3532C30.1978 55 30.1017 54.8304 30.1817 54.6971L32.9417 50.0971Z"
      fill="#E6E7E8"/>
    <path
      d="M38.9417 50.0971C38.9779 50.0369 39.043 50 39.1132 50H41.6468C41.8022 50 41.8982 50.1696 41.8183 50.3029L39.0583 54.9029C39.0221 54.9631 38.957 55 38.8868 55H36.3532C36.1978 55 36.1018 54.8304 36.1817 54.6971L38.9417 50.0971Z"
      fill="#E6E7E8"/>
  </symbol>
  <symbol id="1072-1">
    <use href="#1072"/>
  </symbol>
  <symbol id="1072-0">
    <use href="#1072"/>
  </symbol>

  <!-- Code: 1087, 1273 -->
  <symbol id="1087" viewBox="0 0 60 60">
    <use href="#cloud-dark"/>
    <path
      d="M39.6601 36H37.1177C37.0451 36 36.9781 36.0394 36.9429 36.1029L32.1651 44.7029C32.091 44.8362 32.1874 45 32.3399 45H34.3333L31.1651 50.7029C31.091 50.8362 31.1874 51 31.3399 51H33.3333L30.1651 56.7029C30.091 56.8362 30.1874 57 30.3399 57H32.8823C32.955 57 33.0219 56.9606 33.0572 56.8971L37.8349 48.2971C37.909 48.1638 37.8126 48 37.6601 48H35.6667L38.8349 42.2971C38.909 42.1638 38.8126 42 38.6601 42H36.6667L39.8349 36.2971C39.909 36.1638 39.8126 36 39.6601 36Z"
      fill="#FFB100"/>
  </symbol>
  <symbol id="1087-1">
    <use href="#sun"/>
    <use href="#1087"/>
  </symbol>
  <symbol id="1087-0">
    <use href="#moon"/>
    <use href="#1087"/>
  </symbol>
  <symbol id="1273-1">
    <use href="#sun"/>
    <use href="#1087"/>
  </symbol>
  <symbol id="1273-0">
    <use href="#moon"/>
    <use href="#1087"/>
  </symbol>

  <!-- Code: 1114 -->
  <symbol id="1114" viewBox="0 0 60 60">
    <use href="#cloud-grey" transform="translate(-4.6, 0)"/>
    <path
      d="M22.634 56.4998C22.9101 56.9781 23.5217 57.142 24 56.8659C24.4783 56.5897 24.6422 55.9781 24.366 55.4998L23.3186 53.6857C23.2802 53.6191 23.3283 53.5357 23.4053 53.5357H25.5C26.0523 53.5357 26.5 53.088 26.5 52.5357C26.5 51.9835 26.0523 51.5357 25.5 51.5357H23.4053C23.3283 51.5357 23.2802 51.4524 23.3187 51.3857L24.366 49.5716C24.6422 49.0933 24.4783 48.4818 24 48.2056C23.5217 47.9295 22.9101 48.0933 22.634 48.5716L21.5866 50.3858C21.5481 50.4524 21.4519 50.4524 21.4134 50.3858L20.366 48.5716C20.0899 48.0933 19.4783 47.9295 19 48.2056C18.5217 48.4818 18.3578 49.0933 18.634 49.5716L19.6813 51.3857C19.7198 51.4524 19.6717 51.5357 19.5947 51.5357L17.5 51.5357C16.9477 51.5357 16.5 51.9835 16.5 52.5357C16.5 53.088 16.9477 53.5357 17.5 53.5357H19.5947C19.6717 53.5357 19.7198 53.6191 19.6814 53.6857L18.634 55.4998C18.3578 55.9781 18.5217 56.5897 19 56.8659C19.4783 57.142 20.0899 56.9781 20.366 56.4998L21.4134 54.6858C21.4519 54.6191 21.5481 54.6191 21.5866 54.6858L22.634 56.4998Z"
      fill="#E6E7E8"/>
    <rect x="29.5" y="50.0358" width="14" height="2" rx="1" fill="#E6E7E8"/>
    <rect x="29.5" y="53.0358" width="11" height="2" rx="1" fill="#E6E7E8"/>
  </symbol>
  <symbol id="1114-1">
    <use href="#1114"/>
  </symbol>
  <symbol id="1114-0">
    <use href="#1114"/>
  </symbol>

  <!-- Code: 1117 -->
  <symbol id="1117" viewBox="0 0 60 60">
    <use href="#cloud-grey" transform="translate(-4.6, 0)"/>
    <path
      d="M16.134 56.4998C16.4101 56.9781 17.0217 57.142 17.5 56.8659C17.9783 56.5897 18.1422 55.9781 17.866 55.4998L16.8186 53.6857C16.7802 53.6191 16.8283 53.5357 16.9053 53.5357H19C19.5523 53.5357 20 53.088 20 52.5357C20 51.9835 19.5523 51.5357 19 51.5357H16.9053C16.8283 51.5357 16.7802 51.4524 16.8187 51.3857L17.866 49.5716C18.1422 49.0933 17.9783 48.4818 17.5 48.2056C17.0217 47.9295 16.4101 48.0933 16.134 48.5716L15.0866 50.3858C15.0481 50.4524 14.9519 50.4524 14.9134 50.3858L13.866 48.5716C13.5899 48.0933 12.9783 47.9295 12.5 48.2056C12.0217 48.4818 11.8578 49.0933 12.134 49.5716L13.1813 51.3857C13.2198 51.4524 13.1717 51.5357 13.0947 51.5357L11 51.5357C10.4477 51.5357 10 51.9835 10 52.5357C10 53.088 10.4477 53.5357 11 53.5357H13.0947C13.1717 53.5357 13.2198 53.6191 13.1814 53.6857L12.134 55.4998C11.8578 55.9781 12.0217 56.5897 12.5 56.8659C12.9783 57.142 13.5899 56.9781 13.866 56.4998L14.9134 54.6858C14.9519 54.6191 15.0481 54.6191 15.0866 54.6858L16.134 56.4998Z"
      fill="#E6E7E8"/>
    <path
      d="M29.134 56.4998C29.4101 56.9781 30.0217 57.142 30.5 56.8659C30.9783 56.5897 31.1422 55.9781 30.866 55.4998L29.8186 53.6857C29.7802 53.6191 29.8283 53.5357 29.9053 53.5357H32C32.5523 53.5357 33 53.088 33 52.5357C33 51.9835 32.5523 51.5357 32 51.5357H29.9053C29.8283 51.5357 29.7802 51.4524 29.8187 51.3857L30.866 49.5716C31.1422 49.0933 30.9783 48.4818 30.5 48.2056C30.0217 47.9295 29.4101 48.0933 29.134 48.5716L28.0866 50.3858C28.0481 50.4524 27.9519 50.4524 27.9134 50.3858L26.866 48.5716C26.5899 48.0933 25.9783 47.9295 25.5 48.2056C25.0217 48.4818 24.8578 49.0933 25.134 49.5716L26.1813 51.3857C26.2198 51.4524 26.1717 51.5357 26.0947 51.5357L24 51.5357C23.4477 51.5357 23 51.9835 23 52.5357C23 53.088 23.4477 53.5357 24 53.5357H26.0947C26.1717 53.5357 26.2198 53.6191 26.1814 53.6857L25.134 55.4998C24.8578 55.9781 25.0217 56.5897 25.5 56.8659C25.9783 57.142 26.5899 56.9781 26.866 56.4998L27.9134 54.6858C27.9519 54.6191 28.0481 54.6191 28.0866 54.6858L29.134 56.4998Z"
      fill="#E6E7E8"/>
    <rect x="36" y="50.0358" width="14" height="2" rx="1" fill="#E6E7E8"/>
    <rect x="36" y="53.0358" width="11" height="2" rx="1" fill="#E6E7E8"/>
  </symbol>
  <symbol id="1117-1">
    <use href="#1117"/>
  </symbol>
  <symbol id="1117-0">
    <use href="#1117"/>
  </symbol>

  <!-- Code: 1135 -->
  <symbol id="1135" viewBox="0 0 60 60">
    <use href="#cloud-grey" transform="translate(-4.6, 0)"/>
    <rect x="13" y="47" width="34" height="3" rx="1" fill="#E6E7E8"/>
    <rect x="13" y="52" width="34" height="3" rx="1" fill="#E6E7E8"/>
  </symbol>
  <symbol id="1135-1">
    <use href="#1135"/>
  </symbol>
  <symbol id="1135-0">
    <use href="#1135"/>
  </symbol>

  <!-- Code: 1147 -->
  <symbol id="1147" viewBox="0 0 60 60">
    <use href="#cloud-grey" transform="translate(-4.6, 0)"/>
    <path
      d="M22.158 47H13.842C13.689 47 13.5927 47.1647 13.6677 47.2981L17.8257 54.6901C17.9021 54.826 18.0979 54.826 18.1743 54.6901L22.3323 47.2981C22.4073 47.1647 22.311 47 22.158 47Z"
      fill="#E6E7E8"/>
    <path
      d="M24.2542 47.5451C24.4251 47.2105 24.769 47 25.1447 47H45.5C46.0523 47 46.5 47.4477 46.5 48V49C46.5 49.5523 46.0523 50 45.5 50H24.6338C23.8866 50 23.4034 49.2104 23.7433 48.5451L24.2542 47.5451Z"
      fill="#E6E7E8"/>
    <path
      d="M21.7236 52.5528C21.893 52.214 22.2393 52 22.618 52H45.5C46.0523 52 46.5 52.4477 46.5 53V54C46.5 54.5523 46.0523 55 45.5 55H22.118C21.3747 55 20.8912 54.2177 21.2236 53.5528L21.7236 52.5528Z"
      fill="#E6E7E8"/>
  </symbol>
  <symbol id="1147-1">
    <use href="#1147"/>
  </symbol>
  <symbol id="1147-0">
    <use href="#1147"/>
  </symbol>

  <!-- Code: 1150, 1153 -->
  <symbol id="1150" viewBox="0 0 60 60">
    <use href="#cloud-grey" transform="translate(-4.6, 0)"/>
    <path
      d="M20.9417 50.0971C20.9779 50.0369 21.043 50 21.1132 50H23.6468C23.8022 50 23.8982 50.1696 23.8183 50.3029L21.0583 54.9029C21.0221 54.9631 20.957 55 20.8868 55H18.3532C18.1978 55 18.1017 54.8304 18.1817 54.6971L20.9417 50.0971Z"
      fill="#1E87E8"/>
    <path
      d="M26.9417 50.0971C26.9779 50.0369 27.043 50 27.1132 50H29.6468C29.8022 50 29.8982 50.1696 29.8183 50.3029L27.0583 54.9029C27.0221 54.9631 26.957 55 26.8868 55H24.3532C24.1978 55 24.1017 54.8304 24.1817 54.6971L26.9417 50.0971Z"
      fill="#1E87E8"/>
    <path
      d="M32.9417 50.0971C32.9779 50.0369 33.043 50 33.1132 50H35.6468C35.8022 50 35.8982 50.1696 35.8183 50.3029L33.0583 54.9029C33.0221 54.9631 32.957 55 32.8868 55H30.3532C30.1978 55 30.1017 54.8304 30.1817 54.6971L32.9417 50.0971Z"
      fill="#1E87E8"/>
    <path
      d="M38.9417 50.0971C38.9779 50.0369 39.043 50 39.1132 50H41.6468C41.8022 50 41.8982 50.1696 41.8183 50.3029L39.0583 54.9029C39.0221 54.9631 38.957 55 38.8868 55H36.3532C36.1978 55 36.1018 54.8304 36.1817 54.6971L38.9417 50.0971Z"
      fill="#1E87E8"/>
  </symbol>
  <symbol id="1150-1">
    <use href="#1150"/>
  </symbol>
  <symbol id="1150-0">
    <use href="#1150"/>
  </symbol>
  <symbol id="1153-1">
    <use href="#1150"/>
  </symbol>
  <symbol id="1153-0">
    <use href="#1150"/>
  </symbol>

  <!-- Code: 1168 -->
  <symbol id="1168" viewBox="0 0 60 60">
    <use href="#cloud-grey" transform="translate(-4.6, 0)"/>
    <path
      d="M23.6468 50H18.3532C18.1978 50 18.1018 50.1696 18.1817 50.3029L20.8285 54.7142C20.9062 54.8436 21.0938 54.8436 21.1715 54.7142L23.8183 50.3029C23.8982 50.1696 23.8022 50 23.6468 50Z"
      fill="#E6E7E8"/>
    <path
      d="M26.9417 50.0971C26.9779 50.0369 27.043 50 27.1132 50H29.6468C29.8022 50 29.8982 50.1696 29.8183 50.3029L27.0583 54.9029C27.0221 54.9631 26.957 55 26.8868 55H24.3532C24.1978 55 24.1018 54.8304 24.1817 54.6971L26.9417 50.0971Z"
      fill="#E6E7E8"/>
    <path
      d="M32.9417 50.0971C32.9779 50.0369 33.043 50 33.1132 50H35.6468C35.8022 50 35.8982 50.1696 35.8183 50.3029L33.0583 54.9029C33.0221 54.9631 32.957 55 32.8868 55H30.3532C30.1978 55 30.1018 54.8304 30.1817 54.6971L32.9417 50.0971Z"
      fill="#E6E7E8"/>
    <path
      d="M38.9417 50.0971C38.9779 50.0369 39.043 50 39.1132 50H41.6468C41.8022 50 41.8982 50.1696 41.8183 50.3029L39.0583 54.9029C39.0221 54.9631 38.957 55 38.8868 55H36.3532C36.1978 55 36.1018 54.8304 36.1817 54.6971L38.9417 50.0971Z"
      fill="#E6E7E8"/>
  </symbol>
  <symbol id="1168-1">
    <use href="#1168"/>
  </symbol>
  <symbol id="1168-0">
    <use href="#1168"/>
  </symbol>

  <!-- Code: 1171 -->
  <symbol id="1171" viewBox="0 0 60 60">
    <use href="#cloud-grey" transform="translate(-4.6, 0)"/>
    <path
      d="M17.6468 50H12.3532C12.1978 50 12.1018 50.1696 12.1817 50.3029L14.8285 54.7142C14.9062 54.8436 15.0938 54.8436 15.1715 54.7142L17.8183 50.3029C17.8982 50.1696 17.8022 50 17.6468 50Z"
      fill="#E6E7E8"/>
    <path
      d="M20.9417 50.0971C20.9779 50.0369 21.043 50 21.1132 50H23.6468C23.8022 50 23.8982 50.1696 23.8183 50.3029L21.0583 54.9029C21.0221 54.9631 20.957 55 20.8868 55H18.3532C18.1978 55 18.1018 54.8304 18.1817 54.6971L20.9417 50.0971Z"
      fill="#E6E7E8"/>
    <path
      d="M26.9417 50.0971C26.9779 50.0369 27.043 50 27.1132 50H29.6468C29.8022 50 29.8982 50.1696 29.8183 50.3029L27.0583 54.9029C27.0221 54.9631 26.957 55 26.8868 55H24.3532C24.1978 55 24.1018 54.8304 24.1817 54.6971L26.9417 50.0971Z"
      fill="#E6E7E8"/>
    <path
      d="M32.9417 50.0971C32.9779 50.0369 33.043 50 33.1132 50H35.6468C35.8022 50 35.8982 50.1696 35.8183 50.3029L33.0583 54.9029C33.0221 54.9631 32.957 55 32.8868 55H30.3532C30.1978 55 30.1018 54.8304 30.1817 54.6971L32.9417 50.0971Z"
      fill="#E6E7E8"/>
    <path
      d="M38.9417 50.0971C38.9779 50.0369 39.043 50 39.1132 50H41.6468C41.8022 50 41.8982 50.1696 41.8183 50.3029L39.0583 54.9029C39.0221 54.9631 38.957 55 38.8868 55H36.3532C36.1978 55 36.1018 54.8304 36.1817 54.6971L38.9417 50.0971Z"
      fill="#E6E7E8"/>
    <path
      d="M44.9417 50.0971C44.9779 50.0369 45.043 50 45.1132 50H47.6468C47.8022 50 47.8982 50.1696 47.8183 50.3029L45.0583 54.9029C45.0221 54.9631 44.957 55 44.8868 55H42.3532C42.1978 55 42.1018 54.8304 42.1817 54.6971L44.9417 50.0971Z"
      fill="#E6E7E8"/>
  </symbol>
  <symbol id="1171-1">
    <use href="#1171"/>
  </symbol>
  <symbol id="1171-0">
    <use href="#1171"/>
  </symbol>

  <!-- Code: 1183, 1189 -->
  <symbol id="1183" viewBox="0 0 60 60">
    <use href="#cloud-grey" transform="translate(-4.6, 0)"/>
    <path
      d="M28.4428 48.1029C28.4781 48.0394 28.545 48 28.6177 48H31.1601C31.3126 48 31.409 48.1638 31.3349 48.2971L26.5572 56.8971C26.5219 56.9606 26.455 57 26.3823 57H23.8399C23.6874 57 23.591 56.8362 23.6651 56.7029L28.4428 48.1029Z"
      fill="#1E87E8"/>
    <path
      d="M33.4428 48.1029C33.4781 48.0394 33.545 48 33.6177 48H36.1601C36.3126 48 36.409 48.1638 36.3349 48.2971L31.5572 56.8971C31.5219 56.9606 31.455 57 31.3823 57H28.8399C28.6874 57 28.591 56.8362 28.6651 56.7029L33.4428 48.1029Z"
      fill="#1E87E8"/>
  </symbol>
  <symbol id="1183-1">
    <use href="#1183"/>
  </symbol>
  <symbol id="1183-0">
    <use href="#1183"/>
  </symbol>
  <symbol id="1189-1">
    <use href="#1183"/>
  </symbol>
  <symbol id="1189-0">
    <use href="#1183"/>
  </symbol>

  <!-- Code: 1192, 1243 -->
  <symbol id="1192" viewBox="0 0 60 60">
    <use href="#cloud-grey"/>
    <path
      d="M28.4428 48.1029C28.4781 48.0394 28.545 48 28.6177 48H31.1601C31.3126 48 31.409 48.1638 31.3349 48.2971L26.5572 56.8971C26.5219 56.9606 26.455 57 26.3823 57H23.8399C23.6874 57 23.591 56.8362 23.6651 56.7029L28.4428 48.1029Z"
      fill="#1E87E8"/>
    <path
      d="M33.4428 48.1029C33.4781 48.0394 33.545 48 33.6177 48H36.1601C36.3126 48 36.409 48.1638 36.3349 48.2971L31.5572 56.8971C31.5219 56.9606 31.455 57 31.3823 57H28.8399C28.6874 57 28.591 56.8362 28.6651 56.7029L33.4428 48.1029Z"
      fill="#1E87E8"/>
    <path
      d="M38.4428 48.1029C38.4781 48.0394 38.545 48 38.6177 48H41.1601C41.3126 48 41.409 48.1638 41.3349 48.2971L36.5572 56.8971C36.5219 56.9606 36.455 57 36.3823 57H33.8399C33.6874 57 33.591 56.8362 33.6651 56.7029L38.4428 48.1029Z"
      fill="#1E87E8"/>
    <path
      d="M43.4428 48.1029C43.4781 48.0394 43.545 48 43.6177 48H46.1601C46.3126 48 46.409 48.1638 46.3349 48.2971L41.5572 56.8971C41.5219 56.9606 41.455 57 41.3823 57H38.8399C38.6874 57 38.591 56.8362 38.6651 56.7029L43.4428 48.1029Z"
      fill="#1E87E8"/>
  </symbol>
  <symbol id="1192-1">
    <use href="#sun"/>
    <use href="#1192"/>
  </symbol>
  <symbol id="1192-0">
    <use href="#moon"/>
    <use href="#1192"/>
  </symbol>
  <symbol id="1243-1">
    <use href="#sun"/>
    <use href="#1192"/>
  </symbol>
  <symbol id="1243-0">
    <use href="#moon"/>
    <use href="#1192"/>
  </symbol>

  <!-- Code: 1195 -->
  <symbol id="1195" viewBox="0 0 60 60">
    <use href="#cloud-grey" transform="translate(-4.6, 0)"/>
    <path
      d="M23.4428 48.1029C23.4781 48.0394 23.545 48 23.6177 48H26.1601C26.3126 48 26.409 48.1638 26.3349 48.2971L21.5572 56.8971C21.5219 56.9606 21.455 57 21.3823 57H18.8399C18.6874 57 18.591 56.8362 18.6651 56.7029L23.4428 48.1029Z"
      fill="#1E87E8"/>
    <path
      d="M28.4428 48.1029C28.4781 48.0394 28.545 48 28.6177 48H31.1601C31.3126 48 31.409 48.1638 31.3349 48.2971L26.5572 56.8971C26.5219 56.9606 26.455 57 26.3823 57H23.8399C23.6874 57 23.591 56.8362 23.6651 56.7029L28.4428 48.1029Z"
      fill="#1E87E8"/>
    <path
      d="M33.4428 48.1029C33.4781 48.0394 33.545 48 33.6177 48H36.1601C36.3126 48 36.409 48.1638 36.3349 48.2971L31.5572 56.8971C31.5219 56.9606 31.455 57 31.3823 57H28.8399C28.6874 57 28.591 56.8362 28.6651 56.7029L33.4428 48.1029Z"
      fill="#1E87E8"/>
    <path
      d="M38.4428 48.1029C38.4781 48.0394 38.545 48 38.6177 48H41.1601C41.3126 48 41.409 48.1638 41.3349 48.2971L36.5572 56.8971C36.5219 56.9606 36.455 57 36.3823 57H33.8399C33.6874 57 33.591 56.8362 33.6651 56.7029L38.4428 48.1029Z"
      fill="#1E87E8"/>
  </symbol>
  <symbol id="1195-1">
    <use href="#1195"/>
  </symbol>
  <symbol id="1195-0">
    <use href="#1195"/>
  </symbol>

  <!-- Code: 1198, 1201 -->
  <symbol id="1198" viewBox="0 0 60 60">
    <use href="#cloud-grey" transform="translate(-4.6, 0)"/>
    <path
      d="M27.3809 48H18.0607C17.9082 48 17.8118 48.1638 17.8858 48.2971L22.5459 56.6853C22.6221 56.8225 22.8194 56.8225 22.8956 56.6853L27.5557 48.2971C27.6298 48.1638 27.5334 48 27.3809 48Z"
      fill="#E6E7E8"/>
    <path
      d="M29.9428 48.1029C29.9781 48.0394 30.045 48 30.1177 48H32.6601C32.8126 48 32.909 48.1638 32.8349 48.2971L28.0572 56.8971C28.0219 56.9606 27.955 57 27.8823 57H25.3399C25.1874 57 25.091 56.8362 25.1651 56.7029L29.9428 48.1029Z"
      fill="#E6E7E8"/>
    <path
      d="M34.9428 48.1029C34.9781 48.0394 35.045 48 35.1177 48H37.6601C37.8126 48 37.909 48.1638 37.8349 48.2971L33.0572 56.8971C33.0219 56.9606 32.955 57 32.8823 57H30.3399C30.1874 57 30.091 56.8362 30.1651 56.7029L34.9428 48.1029Z"
      fill="#E6E7E8"/>
    <path
      d="M39.9428 48.1029C39.9781 48.0394 40.045 48 40.1177 48H42.6601C42.8126 48 42.909 48.1638 42.8349 48.2971L38.0572 56.8971C38.0219 56.9606 37.955 57 37.8823 57H35.3399C35.1874 57 35.091 56.8362 35.1651 56.7029L39.9428 48.1029Z"
      fill="#E6E7E8"/>
  </symbol>
  <symbol id="1198-1">
    <use href="#1198"/>
  </symbol>
  <symbol id="1198-0">
    <use href="#1198"/>
  </symbol>
  <symbol id="1201-1">
    <use href="#1198"/>
  </symbol>
  <symbol id="1201-0">
    <use href="#1198"/>
  </symbol>

  <!-- Code: 1204, 1207 -->
  <symbol id="1204" viewBox="0 0 60 60">
    <use href="#cloud-grey" transform="translate(-4.6, 0)"/>
    <path
      d="M23.4428 48.1029C23.4781 48.0394 23.545 48 23.6177 48H26.1601C26.3126 48 26.409 48.1638 26.3349 48.2971L21.5572 56.8971C21.5219 56.9606 21.455 57 21.3823 57H18.8399C18.6874 57 18.591 56.8362 18.6651 56.7029L23.4428 48.1029Z"
      fill="#1E87E8"/>
    <path
      d="M28.4428 48.1029C28.4781 48.0394 28.545 48 28.6177 48H31.1601C31.3126 48 31.409 48.1638 31.3349 48.2971L26.5572 56.8971C26.5219 56.9606 26.455 57 26.3823 57H23.8399C23.6874 57 23.591 56.8362 23.6651 56.7029L28.4428 48.1029Z"
      fill="#1E87E8"/>
    <path
      d="M37.634 56.4998C37.9101 56.9781 38.5217 57.142 39 56.8659C39.4783 56.5897 39.6422 55.9781 39.366 55.4998L38.3186 53.6857C38.2802 53.6191 38.3283 53.5357 38.4053 53.5357H40.5C41.0523 53.5357 41.5 53.088 41.5 52.5357C41.5 51.9835 41.0523 51.5357 40.5 51.5357H38.4053C38.3283 51.5357 38.2802 51.4524 38.3187 51.3857L39.366 49.5716C39.6422 49.0933 39.4783 48.4818 39 48.2056C38.5217 47.9295 37.9101 48.0933 37.634 48.5716L36.5866 50.3858C36.5481 50.4524 36.4519 50.4524 36.4134 50.3858L35.366 48.5716C35.0899 48.0933 34.4783 47.9295 34 48.2056C33.5217 48.4818 33.3578 49.0933 33.634 49.5716L34.6813 51.3857C34.7198 51.4524 34.6717 51.5357 34.5947 51.5357L32.5 51.5357C31.9477 51.5357 31.5 51.9835 31.5 52.5357C31.5 53.088 31.9477 53.5357 32.5 53.5357H34.5947C34.6717 53.5357 34.7198 53.6191 34.6814 53.6857L33.634 55.4998C33.3578 55.9781 33.5217 56.5897 34 56.8659C34.4783 57.142 35.0899 56.9781 35.366 56.4998L36.4134 54.6858C36.4519 54.6191 36.5481 54.6191 36.5866 54.6858L37.634 56.4998Z"
      fill="#E6E7E8"/>
  </symbol>
  <symbol id="1204-1">
    <use href="#1204"/>
  </symbol>
  <symbol id="1204-0">
    <use href="#1204"/>
  </symbol>
  <symbol id="1207-1">
    <use href="#1204"/>
  </symbol>
  <symbol id="1207-0">
    <use href="#1204"/>
  </symbol>

  <!-- Code: 1213, 1219 -->
  <symbol id="1213" viewBox="0 0 60 60">
    <use href="#cloud-grey" transform="translate(-4.6, 0)"/>
    <path
      d="M31.134 56.4998C31.4101 56.9781 32.0217 57.142 32.5 56.8659C32.9783 56.5897 33.1422 55.9781 32.866 55.4998L31.8186 53.6857C31.7802 53.6191 31.8283 53.5357 31.9053 53.5357H34C34.5523 53.5357 35 53.088 35 52.5357C35 51.9835 34.5523 51.5357 34 51.5357H31.9053C31.8283 51.5357 31.7802 51.4524 31.8187 51.3857L32.866 49.5716C33.1422 49.0933 32.9783 48.4818 32.5 48.2056C32.0217 47.9295 31.4101 48.0933 31.134 48.5716L30.0866 50.3858C30.0481 50.4524 29.9519 50.4524 29.9134 50.3858L28.866 48.5716C28.5899 48.0933 27.9783 47.9295 27.5 48.2056C27.0217 48.4818 26.8578 49.0933 27.134 49.5716L28.1813 51.3857C28.2198 51.4524 28.1717 51.5357 28.0947 51.5357L26 51.5357C25.4477 51.5357 25 51.9835 25 52.5357C25 53.088 25.4477 53.5357 26 53.5357H28.0947C28.1717 53.5357 28.2198 53.6191 28.1814 53.6857L27.134 55.4998C26.8578 55.9781 27.0217 56.5897 27.5 56.8659C27.9783 57.142 28.5899 56.9781 28.866 56.4998L29.9134 54.6858C29.9519 54.6191 30.0481 54.6191 30.0866 54.6858L31.134 56.4998Z"
      fill="#E6E7E8"/>
  </symbol>
  <symbol id="1213-1">
    <use href="#1213"/>
  </symbol>
  <symbol id="1213-0">
    <use href="#1213"/>
  </symbol>
  <symbol id="1219-1">
    <use href="#1213"/>
  </symbol>
  <symbol id="1219-0">
    <use href="#1213"/>
  </symbol>

  <!-- Code: 1222, 1258 -->
  <symbol id="1222" viewBox="0 0 60 60">
    <use href="#cloud-grey"/>
    <path
      d="M30.134 56.4998C30.4101 56.9781 31.0217 57.142 31.5 56.8659C31.9783 56.5897 32.1422 55.9781 31.866 55.4998L30.8186 53.6857C30.7802 53.6191 30.8283 53.5357 30.9053 53.5357H33C33.5523 53.5357 34 53.088 34 52.5357C34 51.9835 33.5523 51.5357 33 51.5357H30.9053C30.8283 51.5357 30.7802 51.4524 30.8187 51.3857L31.866 49.5716C32.1422 49.0933 31.9783 48.4818 31.5 48.2056C31.0217 47.9295 30.4101 48.0933 30.134 48.5716L29.0866 50.3858C29.0481 50.4524 28.9519 50.4524 28.9134 50.3858L27.866 48.5716C27.5899 48.0933 26.9783 47.9295 26.5 48.2056C26.0217 48.4818 25.8578 49.0933 26.134 49.5716L27.1813 51.3857C27.2198 51.4524 27.1717 51.5357 27.0947 51.5357L25 51.5357C24.4477 51.5357 24 51.9835 24 52.5357C24 53.088 24.4477 53.5357 25 53.5357H27.0947C27.1717 53.5357 27.2198 53.6191 27.1814 53.6857L26.134 55.4998C25.8578 55.9781 26.0217 56.5897 26.5 56.8659C26.9783 57.142 27.5899 56.9781 27.866 56.4998L28.9134 54.6858C28.9519 54.6191 29.0481 54.6191 29.0866 54.6858L30.134 56.4998Z"
      fill="#E6E7E8"/>
    <path
      d="M42.134 56.4998C42.4101 56.9781 43.0217 57.142 43.5 56.8659C43.9783 56.5897 44.1422 55.9781 43.866 55.4998L42.8186 53.6857C42.7802 53.6191 42.8283 53.5357 42.9053 53.5357H45C45.5523 53.5357 46 53.088 46 52.5357C46 51.9835 45.5523 51.5357 45 51.5357H42.9053C42.8283 51.5357 42.7802 51.4524 42.8187 51.3857L43.866 49.5716C44.1422 49.0933 43.9783 48.4818 43.5 48.2056C43.0217 47.9295 42.4101 48.0933 42.134 48.5716L41.0866 50.3858C41.0481 50.4524 40.9519 50.4524 40.9134 50.3858L39.866 48.5716C39.5899 48.0933 38.9783 47.9295 38.5 48.2056C38.0217 48.4818 37.8578 49.0933 38.134 49.5716L39.1813 51.3857C39.2198 51.4524 39.1717 51.5357 39.0947 51.5357L37 51.5357C36.4477 51.5357 36 51.9835 36 52.5357C36 53.088 36.4477 53.5357 37 53.5357H39.0947C39.1717 53.5357 39.2198 53.6191 39.1814 53.6857L38.134 55.4998C37.8578 55.9781 38.0217 56.5897 38.5 56.8659C38.9783 57.142 39.5899 56.9781 39.866 56.4998L40.9134 54.6858C40.9519 54.6191 41.0481 54.6191 41.0866 54.6858L42.134 56.4998Z"
      fill="#E6E7E8"/>
  </symbol>
  <symbol id="1222-1">
    <use href="#sun"/>
    <use href="#1222"/>
  </symbol>
  <symbol id="1222-0">
    <use href="#moon"/>
    <use href="#1222"/>
  </symbol>
  <symbol id="1258-1">
    <use href="#sun"/>
    <use href="#1222"/>
  </symbol>
  <symbol id="1258-0">
    <use href="#moon"/>
    <use href="#1222"/>
  </symbol>

  <!-- Code: 1225 -->
  <symbol id="1225" viewBox="0 0 60 60">
    <use href="#cloud-grey" transform="translate(-4.6, 0)"/>
    <path
      d="M25.134 56.4998C25.4101 56.9781 26.0217 57.142 26.5 56.8659C26.9783 56.5897 27.1422 55.9781 26.866 55.4998L25.8186 53.6857C25.7802 53.6191 25.8283 53.5357 25.9053 53.5357H28C28.5523 53.5357 29 53.088 29 52.5357C29 51.9835 28.5523 51.5357 28 51.5357H25.9053C25.8283 51.5357 25.7802 51.4524 25.8187 51.3857L26.866 49.5716C27.1422 49.0933 26.9783 48.4818 26.5 48.2056C26.0217 47.9295 25.4101 48.0933 25.134 48.5716L24.0866 50.3858C24.0481 50.4524 23.9519 50.4524 23.9134 50.3858L22.866 48.5716C22.5899 48.0933 21.9783 47.9295 21.5 48.2056C21.0217 48.4818 20.8578 49.0933 21.134 49.5716L22.1813 51.3857C22.2198 51.4524 22.1717 51.5357 22.0947 51.5357L20 51.5357C19.4477 51.5357 19 51.9835 19 52.5357C19 53.088 19.4477 53.5357 20 53.5357H22.0947C22.1717 53.5357 22.2198 53.6191 22.1814 53.6857L21.134 55.4998C20.8578 55.9781 21.0217 56.5897 21.5 56.8659C21.9783 57.142 22.5899 56.9781 22.866 56.4998L23.9134 54.6858C23.9519 54.6191 24.0481 54.6191 24.0866 54.6858L25.134 56.4998Z"
      fill="#E6E7E8"/>
    <path
      d="M37.134 56.4998C37.4101 56.9781 38.0217 57.142 38.5 56.8659C38.9783 56.5897 39.1422 55.9781 38.866 55.4998L37.8186 53.6857C37.7802 53.6191 37.8283 53.5357 37.9053 53.5357H40C40.5523 53.5357 41 53.088 41 52.5357C41 51.9835 40.5523 51.5357 40 51.5357H37.9053C37.8283 51.5357 37.7802 51.4524 37.8187 51.3857L38.866 49.5716C39.1422 49.0933 38.9783 48.4818 38.5 48.2056C38.0217 47.9295 37.4101 48.0933 37.134 48.5716L36.0866 50.3858C36.0481 50.4524 35.9519 50.4524 35.9134 50.3858L34.866 48.5716C34.5899 48.0933 33.9783 47.9295 33.5 48.2056C33.0217 48.4818 32.8578 49.0933 33.134 49.5716L34.1813 51.3857C34.2198 51.4524 34.1717 51.5357 34.0947 51.5357L32 51.5357C31.4477 51.5357 31 51.9835 31 52.5357C31 53.088 31.4477 53.5357 32 53.5357H34.0947C34.1717 53.5357 34.2198 53.6191 34.1814 53.6857L33.134 55.4998C32.8578 55.9781 33.0217 56.5897 33.5 56.8659C33.9783 57.142 34.5899 56.9781 34.866 56.4998L35.9134 54.6858C35.9519 54.6191 36.0481 54.6191 36.0866 54.6858L37.134 56.4998Z"
      fill="#E6E7E8"/>
  </symbol>
  <symbol id="1225-1">
    <use href="#1225"/>
  </symbol>
  <symbol id="1225-0">
    <use href="#1225"/>
  </symbol>

  <!-- Code: 1237 -->
  <symbol id="1237" viewBox="0 0 60 60">
    <use href="#cloud-grey" transform="translate(-4.6, 0)"/>
    <circle cx="30" cy="51.5" r="3.5" fill="#E6E7E8"/>
  </symbol>
  <symbol id="1237-1">
    <use href="#1237"/>
  </symbol>
  <symbol id="1237-0">
    <use href="#1237"/>
  </symbol>

  <!-- Code: 1246 -->
  <symbol id="1246" viewBox="0 0 60 60">
    <use href="#cloud-dark"/>
    <path
      d="M23.4428 48.1029C23.4781 48.0394 23.545 48 23.6177 48H26.1601C26.3126 48 26.409 48.1638 26.3349 48.2971L21.5572 56.8971C21.5219 56.9606 21.455 57 21.3823 57H18.8399C18.6874 57 18.591 56.8362 18.6651 56.7029L23.4428 48.1029Z"
      fill="#1E87E8"/>
    <path
      d="M28.4428 48.1029C28.4781 48.0394 28.545 48 28.6177 48H31.1601C31.3126 48 31.409 48.1638 31.3349 48.2971L26.5572 56.8971C26.5219 56.9606 26.455 57 26.3823 57H23.8399C23.6874 57 23.591 56.8362 23.6651 56.7029L28.4428 48.1029Z"
      fill="#1E87E8"/>
    <path
      d="M33.4428 48.1029C33.4781 48.0394 33.545 48 33.6177 48H36.1601C36.3126 48 36.409 48.1638 36.3349 48.2971L31.5572 56.8971C31.5219 56.9606 31.455 57 31.3823 57H28.8399C28.6874 57 28.591 56.8362 28.6651 56.7029L33.4428 48.1029Z"
      fill="#1E87E8"/>
    <path
      d="M38.4428 48.1029C38.4781 48.0394 38.545 48 38.6177 48H41.1601C41.3126 48 41.409 48.1638 41.3349 48.2971L36.5572 56.8971C36.5219 56.9606 36.455 57 36.3823 57H33.8399C33.6874 57 33.591 56.8362 33.6651 56.7029L38.4428 48.1029Z"
      fill="#1E87E8"/>
    <path
      d="M43.4428 48.1029C43.4781 48.0394 43.545 48 43.6177 48H46.1601C46.3126 48 46.409 48.1638 46.3349 48.2971L41.5572 56.8971C41.5219 56.9606 41.455 57 41.3823 57H38.8399C38.6874 57 38.591 56.8362 38.6651 56.7029L43.4428 48.1029Z"
      fill="#1E87E8"/>
    <path
      d="M48.4428 48.1029C48.4781 48.0394 48.545 48 48.6177 48H51.1601C51.3126 48 51.409 48.1638 51.3349 48.2971L46.5572 56.8971C46.5219 56.9606 46.455 57 46.3823 57H43.8399C43.6874 57 43.591 56.8362 43.6651 56.7029L48.4428 48.1029Z"
      fill="#1E87E8"/>
  </symbol>
  <symbol id="1246-1">
    <use href="#sun"/>
    <use href="#1246"/>
  </symbol>
  <symbol id="1246-0">
    <use href="#moon"/>
    <use href="#1246"/>
  </symbol>

  <!-- Code: 1252 -->
  <symbol id="1252" viewBox="0 0 60 60">
    <use href="#cloud-grey"/>
    <path
      d="M22.4428 48.1029C22.4781 48.0394 22.545 48 22.6177 48H25.1601C25.3126 48 25.409 48.1638 25.3349 48.2971L20.5572 56.8971C20.5219 56.9606 20.455 57 20.3823 57H17.8399C17.6874 57 17.591 56.8362 17.6651 56.7029L22.4428 48.1029Z"
      fill="#1E87E8"/>
    <path
      d="M27.4428 48.1029C27.4781 48.0394 27.545 48 27.6177 48H30.1601C30.3126 48 30.409 48.1638 30.3349 48.2971L25.5572 56.8971C25.5219 56.9606 25.455 57 25.3823 57H22.8399C22.6874 57 22.591 56.8362 22.6651 56.7029L27.4428 48.1029Z"
      fill="#1E87E8"/>
    <path
      d="M36.634 56.4998C36.9101 56.9781 37.5217 57.142 38 56.8659C38.4783 56.5897 38.6422 55.9781 38.366 55.4998L37.3186 53.6857C37.2802 53.6191 37.3283 53.5357 37.4053 53.5357H39.5C40.0523 53.5357 40.5 53.088 40.5 52.5357C40.5 51.9835 40.0523 51.5357 39.5 51.5357H37.4053C37.3283 51.5357 37.2802 51.4524 37.3187 51.3857L38.366 49.5716C38.6422 49.0933 38.4783 48.4818 38 48.2056C37.5217 47.9295 36.9101 48.0933 36.634 48.5716L35.5866 50.3858C35.5481 50.4524 35.4519 50.4524 35.4134 50.3858L34.366 48.5716C34.0899 48.0933 33.4783 47.9295 33 48.2056C32.5217 48.4818 32.3578 49.0933 32.634 49.5716L33.6813 51.3857C33.7198 51.4524 33.6717 51.5357 33.5947 51.5357L31.5 51.5357C30.9477 51.5357 30.5 51.9835 30.5 52.5357C30.5 53.088 30.9477 53.5357 31.5 53.5357H33.5947C33.6717 53.5357 33.7198 53.6191 33.6814 53.6857L32.634 55.4998C32.3578 55.9781 32.5217 56.5897 33 56.8659C33.4783 57.142 34.0899 56.9781 34.366 56.4998L35.4134 54.6858C35.4519 54.6191 35.5481 54.6191 35.5866 54.6858L36.634 56.4998Z"
      fill="#E6E7E8"/>
    <path
      d="M48.634 56.4998C48.9101 56.9781 49.5217 57.142 50 56.8659C50.4783 56.5897 50.6422 55.9781 50.366 55.4998L49.3186 53.6857C49.2802 53.6191 49.3283 53.5357 49.4053 53.5357H51.5C52.0523 53.5357 52.5 53.088 52.5 52.5357C52.5 51.9835 52.0523 51.5357 51.5 51.5357H49.4053C49.3283 51.5357 49.2802 51.4524 49.3187 51.3857L50.366 49.5716C50.6422 49.0933 50.4783 48.4818 50 48.2056C49.5217 47.9295 48.9101 48.0933 48.634 48.5716L47.5866 50.3858C47.5481 50.4524 47.4519 50.4524 47.4134 50.3858L46.366 48.5716C46.0899 48.0933 45.4783 47.9295 45 48.2056C44.5217 48.4818 44.3578 49.0933 44.634 49.5716L45.6813 51.3857C45.7198 51.4524 45.6717 51.5357 45.5947 51.5357L43.5 51.5357C42.9477 51.5357 42.5 51.9835 42.5 52.5357C42.5 53.088 42.9477 53.5357 43.5 53.5357H45.5947C45.6717 53.5357 45.7198 53.6191 45.6814 53.6857L44.634 55.4998C44.3578 55.9781 44.5217 56.5897 45 56.8659C45.4783 57.142 46.0899 56.9781 46.366 56.4998L47.4134 54.6858C47.4519 54.6191 47.5481 54.6191 47.5866 54.6858L48.634 56.4998Z"
      fill="#E6E7E8"/>
  </symbol>
  <symbol id="1252-1">
    <use href="#sun"/>
    <use href="#1252"/>
  </symbol>
  <symbol id="1252-0">
    <use href="#moon"/>
    <use href="#1252"/>
  </symbol>

  <!-- Code: 1261 -->
  <symbol id="1261" viewBox="0 0 60 60">
    <use href="#cloud-grey"/>
    <circle cx="35" cy="51.5" r="3.5" fill="#E6E7E8"/>
  </symbol>
  <symbol id="1261-1">
    <use href="#sun"/>
    <use href="#1261"/>
  </symbol>
  <symbol id="1261-0">
    <use href="#moon"/>
    <use href="#1261"/>
  </symbol>

  <!-- Code: 1264 -->
  <symbol id="1264" viewBox="0 0 60 60">
    <use href="#cloud-grey"/>
    <circle cx="29.5" cy="51.5" r="3.5" fill="#E6E7E8"/>
    <circle cx="40.5" cy="51.5" r="3.5" fill="#E6E7E8"/>
  </symbol>
  <symbol id="1264-1">
    <use href="#sun"/>
    <use href="#1264"/>
  </symbol>
  <symbol id="1264-0">
    <use href="#moon"/>
    <use href="#1264"/>
  </symbol>

  <!-- Code: 1276 -->
  <symbol id="1276" viewBox="0 0 60 60">
    <use href="#cloud-dark" transform="translate(-4.6, 0)"/>
    <path
      d="M34.6601 36H32.1177C32.0451 36 31.9781 36.0394 31.9429 36.1029L27.1651 44.7029C27.091 44.8362 27.1874 45 27.3399 45H29.3333L26.1651 50.7029C26.091 50.8362 26.1874 51 26.3399 51H28.3333L25.1651 56.7029C25.091 56.8362 25.1874 57 25.3399 57H27.8823C27.955 57 28.0219 56.9606 28.0572 56.8971L32.8349 48.2971C32.909 48.1638 32.8126 48 32.6601 48H30.6667L33.8349 42.2971C33.909 42.1638 33.8126 42 33.6601 42H31.6667L34.8349 36.2971C34.909 36.1638 34.8126 36 34.6601 36Z"
      fill="#FFB100"/>
  </symbol>
  <symbol id="1276-1">
    <use href="#1276"/>
  </symbol>
  <symbol id="1276-0">
    <use href="#1276"/>
  </symbol>

  <!-- Code: 1279 -->
  <symbol id="1279" viewBox="0 0 60 60">
    <use href="#cloud-dark"/>
    <path
      d="M29.2736 56.4998C29.5497 56.9781 30.1613 57.142 30.6396 56.8659C31.1179 56.5897 31.2818 55.9781 31.0056 55.4998L29.9583 53.6857C29.9198 53.6191 29.9679 53.5357 30.0449 53.5357H32.1396C32.6919 53.5357 33.1396 53.088 33.1396 52.5357C33.1396 51.9835 32.6919 51.5357 32.1396 51.5357H30.0449C29.9679 51.5357 29.9198 51.4524 29.9583 51.3857L31.0056 49.5716C31.2818 49.0933 31.1179 48.4818 30.6396 48.2056C30.1613 47.9295 29.5497 48.0933 29.2736 48.5716L28.2262 50.3858C28.1877 50.4524 28.0915 50.4524 28.053 50.3858L27.0056 48.5716C26.7295 48.0933 26.1179 47.9295 25.6396 48.2056C25.1613 48.4818 24.9974 49.0933 25.2736 49.5716L26.321 51.3857C26.3594 51.4524 26.3113 51.5357 26.2344 51.5357L24.1396 51.5357C23.5873 51.5357 23.1396 51.9835 23.1396 52.5357C23.1396 53.088 23.5873 53.5357 24.1396 53.5357H26.2344C26.3113 53.5357 26.3595 53.6191 26.321 53.6857L25.2736 55.4998C24.9975 55.9781 25.1613 56.5897 25.6396 56.8659C26.1179 57.142 26.7295 56.9781 27.0057 56.4998L28.053 54.6858C28.0915 54.6191 28.1877 54.6191 28.2262 54.6858L29.2736 56.4998Z"
      fill="#E6E7E8"/>
    <path
      d="M46.6601 36H44.1177C44.0451 36 43.9781 36.0394 43.9429 36.1029L39.1651 44.7029C39.091 44.8362 39.1874 45 39.3399 45H41.3333L38.1651 50.7029C38.091 50.8362 38.1874 51 38.3399 51H40.3333L37.1651 56.7029C37.091 56.8362 37.1874 57 37.3399 57H39.8823C39.955 57 40.0219 56.9606 40.0572 56.8971L44.8349 48.2971C44.909 48.1638 44.8126 48 44.6601 48H42.6667L45.8349 42.2971C45.909 42.1638 45.8126 42 45.6601 42H43.6667L46.8349 36.2971C46.909 36.1638 46.8126 36 46.6601 36Z"
      fill="#FFB100"/>
  </symbol>
  <symbol id="1279-1">
    <use href="#sun"/>
    <use href="#1279"/>
  </symbol>
  <symbol id="1279-0">
    <use href="#moon"/>
    <use href="#1279"/>
  </symbol>

  <!-- Code: 1282 -->
  <symbol id="1282" viewBox="0 0 60 60">
    <use href="#cloud-dark" transform="translate(-4.6, 0)"/>
    <path
      d="M24.2736 56.4998C24.5497 56.9781 25.1613 57.142 25.6396 56.8659C26.1179 56.5897 26.2818 55.9781 26.0056 55.4998L24.9583 53.6857C24.9198 53.6191 24.9679 53.5357 25.0449 53.5357H27.1396C27.6919 53.5357 28.1396 53.088 28.1396 52.5357C28.1396 51.9835 27.6919 51.5357 27.1396 51.5357H25.0449C24.9679 51.5357 24.9198 51.4524 24.9583 51.3857L26.0056 49.5716C26.2818 49.0933 26.1179 48.4818 25.6396 48.2056C25.1613 47.9295 24.5497 48.0933 24.2736 48.5716L23.2262 50.3858C23.1877 50.4524 23.0915 50.4524 23.053 50.3858L22.0056 48.5716C21.7295 48.0933 21.1179 47.9295 20.6396 48.2056C20.1613 48.4818 19.9974 49.0933 20.2736 49.5716L21.321 51.3857C21.3594 51.4524 21.3113 51.5357 21.2344 51.5357L19.1396 51.5357C18.5873 51.5357 18.1396 51.9835 18.1396 52.5357C18.1396 53.088 18.5873 53.5357 19.1396 53.5357H21.2344C21.3113 53.5357 21.3595 53.6191 21.321 53.6857L20.2736 55.4998C19.9975 55.9781 20.1613 56.5897 20.6396 56.8659C21.1179 57.142 21.7295 56.9781 22.0057 56.4998L23.053 54.6858C23.0915 54.6191 23.1877 54.6191 23.2262 54.6858L24.2736 56.4998Z"
      fill="#E6E7E8"/>
    <path
      d="M41.6601 36H39.1177C39.0451 36 38.9781 36.0394 38.9429 36.1029L34.1651 44.7029C34.091 44.8362 34.1874 45 34.3399 45H36.3333L33.1651 50.7029C33.091 50.8362 33.1874 51 33.3399 51H35.3333L32.1651 56.7029C32.091 56.8362 32.1874 57 32.3399 57H34.8823C34.955 57 35.0219 56.9606 35.0572 56.8971L39.8349 48.2971C39.909 48.1638 39.8126 48 39.6601 48H37.6667L40.8349 42.2971C40.909 42.1638 40.8126 42 40.6601 42H38.6667L41.8349 36.2971C41.909 36.1638 41.8126 36 41.6601 36Z"
      fill="#FFB100"/>
  </symbol>
  <symbol id="1282-1">
    <use href="#1282"/>
  </symbol>
  <symbol id="1282-0">
    <use href="#1282"/>
  </symbol>

  <!-- =========== Common parts =========== -->
  <!-- Moon -->
  <symbol id="moon" viewBox="0 0 60 60">
    <path
      d="M4.31775 14C4.31775 19.5228 8.7949 24 14.3177 24C18.332 24 21.7938 21.6347 23.3855 18.2218C23.4434 18.0976 23.3577 17.9555 23.2215 17.9406C18.2144 17.3947 14.3177 13.1524 14.3177 8C14.3177 6.6894 14.5699 5.43768 15.0283 4.29071C15.0791 4.16349 14.9938 4.02156 14.857 4.01429C14.6784 4.0048 14.4986 4 14.3177 4C8.7949 4 4.31775 8.47715 4.31775 14Z"
      fill="#EFDA45"/>
    <path
      d="M5.45056 9.38208C5.36442 9.91012 5.31775 10.4518 5.31775 11.0042C5.31775 16.527 9.7949 21.0042 15.3177 21.0042C18.1892 21.0042 20.7771 19.793 22.601 17.8547C22.8057 17.8902 23.0122 17.9218 23.2211 17.9446C23.3573 17.9594 23.443 18.1017 23.3851 18.2258C21.7934 21.6387 18.332 24.0042 14.3177 24.0042C8.7949 24.0042 4.31775 19.527 4.31775 14.0042C4.31775 12.3362 4.72835 10.7648 5.45056 9.38208Z"
      fill="#EDC148"/>
  </symbol>

  <!-- Sun -->
  <symbol id="sun" viewBox="0 0 60 60">
    <rect x="9.64994" y="11.1722" width="3.57895" height="5.36842" rx="1"
          transform="rotate(-30 9.64994 11.1722)" fill="#FFB100"/>
    <rect x="4.0825" y="18.0497" width="3.57895" height="5.36842" rx="1"
          transform="rotate(-60 4.0825 18.0497)" fill="#FFB100"/>
    <rect x="2.69966" y="26.7894" width="3.57895" height="5.36842" rx="1"
          transform="rotate(-90 2.69966 26.7894)" fill="#FFB100"/>
    <rect x="5.87196" y="35.0498" width="3.57895" height="5.36842" rx="1"
          transform="rotate(-120 5.87196 35.0498)" fill="#FFB100"/>
    <rect x="27.0652" y="15.8215" width="3.57895" height="5.36842" rx="1"
          transform="rotate(-150 27.0652 15.8215)" fill="#FFB100"/>
    <rect x="17.9102" y="8" width="3.57895" height="5.36842" rx="1"
          fill="#FFB100"/>
    <path
      d="M19.6995 17.5526C23.8126 17.5526 27.1467 20.8869 27.1468 24.9999C27.1468 29.1129 23.8126 32.4471 19.6995 32.4471C15.5865 32.4471 12.2523 29.1129 12.2523 24.9999C12.2523 20.8869 15.5866 17.5527 19.6995 17.5526Z"
      fill="#FFF100" stroke="#FFB100" stroke-width="3"/>
  </symbol>

  <!-- Cloud  -->
  <symbol id="cloud" viewBox="0 0 60 60">
    <path
      class="shape"
      d="M39.5935 16C45.6686 16 50.5935 20.9249 50.5935 27C50.5935 27.1529 50.5894 27.3081 50.5828 27.4678L50.5515 28.207L51.2498 28.4531C54.3637 29.5491 56.5935 32.5149 56.5935 36C56.5935 40.4183 53.0118 44 48.5935 44H19.5935C15.7275 44 12.5935 40.866 12.5935 37C12.5935 33.7283 14.8394 30.979 17.8748 30.2129L18.5593 30.04L18.6257 29.3369C18.9593 25.7825 21.9516 23 25.5935 23C26.4772 23 27.3208 23.1647 28.0984 23.4629L29.0173 23.8154L29.3845 22.9023C31.0107 18.8552 34.9692 16 39.5935 16Z"
      stroke-width="2"/>
  </symbol>
  <symbol id="cloud-light" viewBox="0 0 60 60">
    <use href="#cloud" fill="#FFF" stroke="#BFC0C0"/>
  </symbol>
  <symbol id="cloud-grey" viewBox="0 0 60 60">
    <use href="#cloud" fill="#E6E7E8" stroke="#929497"/>
  </symbol>
  <symbol id="cloud-dark" viewBox="0 0 60 60">
    <use href="#cloud" fill="#808285" stroke="#333333"/>
  </symbol>
</svg>
