<svg width="48" height="48" viewBox="0 0 48 48" fill="none" xmlns="http://www.w3.org/2000/svg">
<g clip-path="url(#clip0_754_1219)">
<rect width="48" height="48" rx="24" fill="#589CF8"/>
<path d="M28.4029 6.74192C38.2538 9.38145 43.0009 17.2379 41.8864 26.901C40.9525 25.9518 40.1394 25.342 38.6471 24.9422C36.4765 24.3606 34.9891 24.7493 33.4411 25.5568C32.506 24.0803 31.4149 23.0043 29.2413 22.4219C27.0731 21.841 25.5772 22.2833 24.025 23.0806C23.0795 21.614 22.0036 20.4826 19.8355 19.9016C17.6619 19.3192 16.179 19.7055 14.6309 20.5166C13.6941 19.0433 12.6003 17.963 10.4297 17.3814C8.93739 16.9815 7.92831 17.103 6.64497 17.4581C10.5113 8.53235 18.5521 4.10238 28.4029 6.74192Z" fill="#FC3F1D"/>
<path d="M28.9012 4.8825C39.5432 7.73442 46.1665 19.1852 43.4225 29.6954C43.3711 29.8909 43.2577 30.0656 43.1005 30.1939C42.9435 30.3218 42.7496 30.3983 42.5462 30.411C42.3425 30.4236 42.1386 30.3721 41.9653 30.2644C41.7919 30.1566 41.6579 29.9966 41.5803 29.8092C41.1935 28.8578 39.778 27.2398 38.1485 26.803C36.4692 26.3531 34.4717 27.0416 33.6914 27.6802C33.5713 27.7758 33.4299 27.8414 33.2787 27.8718C33.1275 27.9022 32.9711 27.8966 32.8222 27.8553C32.6732 27.8138 32.536 27.7374 32.4222 27.6333C32.3086 27.5293 32.2213 27.4005 32.1678 27.2569C31.8162 26.3139 30.4306 24.735 28.7427 24.2827C27.4355 23.9325 25.8463 24.3313 24.8595 24.826C24.6318 24.9402 24.477 25.1556 24.4115 25.4019L19.5831 43.5735C19.4473 44.0843 18.9218 44.387 18.4119 44.2482C17.907 44.1108 17.6074 43.5921 17.7407 43.0861L22.5316 24.8943C22.5959 24.6501 22.569 24.3886 22.4302 24.1776C21.8236 23.2552 20.6454 22.1131 19.3369 21.7625C17.649 21.3103 15.6611 21.9852 14.885 22.626C14.7667 22.7238 14.6257 22.7911 14.475 22.8243C14.3244 22.8576 14.1674 22.8552 14.0177 22.8166C13.8681 22.778 13.7298 22.7046 13.6141 22.6027C13.4983 22.5008 13.4087 22.3732 13.3524 22.2304C12.996 21.2872 11.6103 19.6921 9.93108 19.2422C8.30153 18.8057 6.26653 19.4992 5.45593 20.1297C5.29497 20.2532 5.09903 20.3248 4.89499 20.3314C4.69094 20.3381 4.48872 20.2807 4.31859 20.1679C4.14876 20.0552 4.01906 19.8921 3.94707 19.7027C3.87507 19.513 3.86565 19.3054 3.91894 19.1104C6.79764 8.63612 18.2587 2.03086 28.9012 4.8825ZM28.4029 6.74192C19.6148 4.38715 10.1385 9.33007 6.64497 17.4581C7.79285 17.1298 9.09852 17.0248 10.4297 17.3814C12.3661 17.9002 13.8006 19.182 14.6309 20.5166C16.0174 19.7728 17.8966 19.3822 19.8355 19.9016C21.7697 20.4199 23.1869 21.7521 24.025 23.0806C25.4151 22.3493 27.3072 21.9037 29.2413 22.4219C31.1801 22.9414 32.6123 24.2194 33.4411 25.5568C34.8275 24.8161 36.7107 24.4233 38.6471 24.9422C39.9783 25.2989 41.0564 26.0427 41.8864 26.901C42.9249 18.1154 37.1906 9.09694 28.4029 6.74192Z" fill="black"/>
</g>
<defs>
<clipPath id="clip0_754_1219">
<rect width="48" height="48" rx="24" fill="white"/>
</clipPath>
</defs>
</svg>
